<?xml version="1.0" standalone="no"?>
  <!DOCTYPE svg PUBLIC "-//W3C//DTD SVG 1.1//EN" "http://www.w3.org/Graphics/SVG/1.1/DTD/svg11.dtd" >
  <svg>
  <metadata>
  Created by font-carrier
  </metadata>
  <defs>
  <font id="Ariston-Normal" horiz-adv-x="1188" vert-adv-y="1188" >
    <font-face
      
      font-family="Ariston"
      
      font-weight="400"
      
      font-stretch="normal"
      
      units-per-em="1000"
      
      ascent="897"
      
      descent="-300"
      
    />
      <missing-glyph />

      

      
      <glyph glyph-name="uni21" unicode="&#x21;" d="M346 625L156 161L145 163L263 611L346 625M153 31Q153-4 117-4Q83-4 83 31Q83 45 93 56Q103 67 117 67Q132 67 142.50 56.50Q153 46 153 31Z"  horiz-adv-x="322" vert-adv-y="1000"  />

      
      <glyph glyph-name="uni22" unicode="&#x22;" d="M299 696L299 697L300 701Q359 729 375 729Q399 729 399 692Q399 652 353.50 596.50Q308 541 268 527Q263 529 263 533L301 574Q338 614 338 644Q338 654 318.50 670Q299 686 299 696M188 645Q188 668 180 677Q179 678 152 694L150 698Q153 704 185.50 717Q218 730 227 730Q250 730 250 693Q250 652 204 597Q162 548 120 528Q114 530 114 534Q114 524 118 524Q126 524 151 566Q188 627 188 644L188 645Z"  horiz-adv-x="327" vert-adv-y="1000"  />

      
      <glyph glyph-name="uni23" unicode="&#x23;" d="M33 206L33 273L140 273L166 466L59 466L59 534L176 534L205 740L274 740L245 534L369 534L398 740L467 740L438 534L521 534L521 467L428 467L401 273L493 273L493 206L392 206L363 0L294 0L323 206L199 206L170 0L101 0L130 206L33 206M209 273L332 273L359 467L236 467L209 273Z"  horiz-adv-x="554" vert-adv-y="1000"  />

      
      <glyph glyph-name="uni24" unicode="&#x24;" d="M-8 87Q-8 104 6 107Q38 77 68 49Q94 25 139 11L243 324Q181 364 153 399Q117 446 117 509Q117 602 199 652Q270 696 367 693L378 725L399 717L390 689Q439 677 460 669Q505 651 505 622Q505 613 499 595Q492 574 486 574Q483 574 472 596Q452 636 380 663L284 376Q363 322 387 290Q423 243 423 163Q423 87 341 36Q271-8 189-10L155-11L127-91L107-84L132-8Q62-1-10 58Q-8 62-8 88L-8 87M360 666Q349 669 305 674Q245 674 204.50 635Q164 596 164 536Q164 449 265 387L359 667L360 666M196 1Q269 1 322 44Q379 90 379 161Q379 208 341 249Q316 276 264 309L162 5Q175 1 195 1L196 1Z"  horiz-adv-x="523" vert-adv-y="1000"  />

      
      <glyph glyph-name="uni25" unicode="&#x25;" d="M223 603Q266 603 290 558Q311 520 311 474Q311 393 260 313Q203 223 125 223Q83 223 60 271Q41 310 41 357Q41 435 92 515Q148 603 222 603L223 603M277 527Q277 553 263 572.50Q249 592 224 592Q165 592 117 468Q76 362 75 292Q75 270 89 252Q103 234 124 234Q183 234 234 354Q277 455 277 527M513 590L220-13L199-1L490 602L513 590M581 373Q624 373 649 328Q671 290 671 244Q671 164 621 83Q565-8 489-8Q444-8 421 41Q402 80 402 130Q402 206 453 285Q510 373 582 373L581 373M481 4Q542 4 593 125Q636 227 636 300Q636 323 622 342.50Q608 362 586 362Q526 362 477 242Q435 139 435 67Q435 43 446 25Q459 4 482 4L481 4Z"  horiz-adv-x="764" vert-adv-y="1000"  />

      
      <glyph glyph-name="uni26" unicode="&#x26;" d="M189 423Q189 474 217 515Q248 562 297 562Q325 562 345.50 541Q366 520 366 492Q366 418 262 353Q314 234 354 153Q404 230 406 329L441 331Q430 258 364 136L427 17L376-11L325 83Q232-13 135-13Q74-13 36 21Q-2 55-2 115Q-2 190 66 256Q126 315 205 337Q190 384 190 423L189 423M339 497Q339 521 326.50 537.50Q314 554 291 554Q261 554 244 525Q230 500 230 468Q230 443 254 366Q339 426 339 498L339 497M58 107Q58 4 152 4Q241 4 317 94Q283 156 208 323Q58 217 58 107Z"  horiz-adv-x="463" vert-adv-y="1000"  />

      
      <glyph glyph-name="uni27" unicode="&#x27;" d="M207 563L207 557Q166 532 125 525Q101 531 101 562Q101 629 229 728Q231 729 235 729Q238 729 238 725Q238 736 234 736Q226 736 202 692Q166 626 166 606Q166 579 185.50 572.50Q205 566 207 563Z"  horiz-adv-x="204" vert-adv-y="1000"  />

      
      <glyph glyph-name="uni28" unicode="&#x28;" d="M96-164L86-167Q67-56 67 48Q67 246 159 420Q235 564 392 727L400 723Q263 529 181 301Q90 50 96-164Z"  horiz-adv-x="342" vert-adv-y="1000"  />

      
      <glyph glyph-name="uni29" unicode="&#x29;" d="M231 729Q250 621 250 514Q250 151-74-164L-82-162Q119 135 185 425Q225 602 222 726L231 729Z"  horiz-adv-x="342" vert-adv-y="1000"  />

      
      <glyph glyph-name="uni2a" unicode="&#x2a;" d="M113 666Q113 683 126.50 695.50Q140 708 157 708Q178 708 204 654Q219 623 239 581L239 594Q239 593 240 607Q240 621 240 636L240 678Q240 733 276 733Q318 733 318 699Q318 685 289 640Q279 625 250 580L311 615Q355 640 370 640Q405 640 405 598Q405 565 372 565Q352 565 311 567L249 570Q315 533 320 529Q369 497 369 474Q369 460 354.50 448Q340 436 326 436Q303 436 278 490Q271 506 243 562L241 477Q240 446 237 433Q231 409 206 409Q162 409 162 442Q162 453 193 503Q202 517 233 567L170 531Q128 507 107 507Q75 507 75 545Q75 558 83.50 569Q92 580 105 580Q147 580 231 574Q207 587 160 615Q113 643 113 667L113 666Z"  horiz-adv-x="342" vert-adv-y="1000"  />

      
      <glyph glyph-name="uni2b" unicode="&#x2b;" d="M336 306L336 570L378 570L378 306L641 306L641 264L378 264L378 0L336 0L336 264L73 264L73 306L336 306Z"  horiz-adv-x="644" vert-adv-y="1000"  />

      
      <glyph glyph-name="uni2c" unicode="&#x2c;" d="M31 25L31 27Q30 27 30 28L30 31Q31 32 31 33L35 37Q98 65 111 65Q122 65 129.50 53.50Q137 42 137 30Q137-8 89-67Q41-126 4-139Q-1-137-1-133L0-130Q71-61 71-16Q71 20 31 25Z"  horiz-adv-x="222" vert-adv-y="1000"  />

      
      <glyph glyph-name="uni2d" unicode="&#x2d;" d="M277 222L261 182L11 182L28 222L277 222Z"  horiz-adv-x="342" vert-adv-y="1000"  />

      
      <glyph glyph-name="uni2010" unicode="&#x2010;" d="M277 222L261 182L11 182L28 222L277 222Z"  horiz-adv-x="342" vert-adv-y="1000"  />

      
      <glyph glyph-name="uni2e" unicode="&#x2e;" d="M134 53Q139 41 139 33Q139 19 129 8Q119-3 105-3Q90-3 79.50 7.50Q69 18 69 33Q69 68 105 68Q119 68 134 53Z"  horiz-adv-x="222" vert-adv-y="1000"  />

      
      <glyph glyph-name="uni2f" unicode="&#x2f;" d="M446 688L19 0L-22 0L407 688L446 688Z"  horiz-adv-x="463" vert-adv-y="1000"  />

      
      <glyph glyph-name="uni30" unicode="&#x30;" d="M304 603Q373 603 412 534Q445 476 445 402Q445 271 367 140Q279-8 155-8Q83-8 47 66Q18 124 18 204Q18 325 100 457Q191 603 305 603L304 603M401 483Q401 532 377 562Q350 596 303 596Q199 596 102 310Q60 187 60 114Q60 0 161 0Q264 0 363 302Q401 418 401 483Z"  horiz-adv-x="503" vert-adv-y="1000"  />

      
      <glyph glyph-name="uni31" unicode="&#x31;" d="M120 437Q274 519 410 614L411 613Q413 613 414 611L199 13L128-10L321 528L111 398L120 437Z"  horiz-adv-x="503" vert-adv-y="1000"  />

      
      <glyph glyph-name="uni32" unicode="&#x32;" d="M394 505Q394 544 372 569Q350 594 311 594Q237 594 187 520Q142 455 142 377Q142 369 146 352Q150 335 150 327Q149 325 146 325L145 327Q123 371 123 425Q123 499 183 552.50Q243 606 318 606Q379 606 417 570.50Q455 535 455 474Q455 382 372 305Q332 268 196 187Q77 116 35 67Q31 63-2 20Q78 61 146 61Q180 61 246 50Q312 39 346 39Q369 39 391 60L397 61L401 56L399 54Q337-8 255-8Q220-8 150.50 6.50Q81 21 46 21Q33 21-25-8Q-29-8-29-1Q-29 92 81 170Q134 207 284 315Q394 396 394 504L394 505Z"  horiz-adv-x="503" vert-adv-y="1000"  />

      
      <glyph glyph-name="uni33" unicode="&#x33;" d="M141 1Q212 1 266 89Q314 167 314 243Q314 321 202 321Q190 321 180 320L157 320L157 323L167 343Q183 339 208 339Q278 339 324 402Q364 459 364 532Q364 561 341 577Q318 593 288 593Q260 593 209 569Q158 545 167 545Q164 545 164 551L178 582Q258 606 300 606Q353 606 388 581Q427 553 427 502Q427 388 272 334Q378 298 378 212Q378 126 302 59Q226-8 139-8Q64-8 20 30Q20 50 14 60Q14 63 17 63Q67 1 141 1Z"  horiz-adv-x="503" vert-adv-y="1000"  />

      
      <glyph glyph-name="uni34" unicode="&#x34;" d="M470 612Q470 609 401 411L320 179L462 179L415 133L305 134L261 8L188-12L240 135L-30 139Q-35 144-35 147Q-35 151-31 152L-31 153L468 615Q470 614 470 612M370 506L18 179L255 179L370 506Z"  horiz-adv-x="503" vert-adv-y="1000"  />

      
      <glyph glyph-name="uni35" unicode="&#x35;" d="M343 296Q343 332 318.50 351Q294 370 257 370Q230 370 179 348Q128 326 109 326Q107 327 107 331Q107 336 150 454L201 594L471 594L439 548L199 548L129 352Q216 388 271 388Q327 388 364.50 348.50Q402 309 402 253Q402 149 323 68Q244-13 141-13Q100-13 23 18L15 58Q61 25 76 18Q109 2 147 2Q230 2 291 111Q343 204 343 296Z"  horiz-adv-x="503" vert-adv-y="1000"  />

      
      <glyph glyph-name="uni36" unicode="&#x36;" d="M460 628Q305 516 198 376Q245 400 281 400Q342 400 379 348Q412 302 412 239Q412 146 347 70Q279-9 188-9Q117-9 74 41Q34 87 34 160Q34 257 124 363Q171 418 292 520Q320 543 420 629L461 629L460 628M360 291Q360 387 275 387Q199 387 136 280Q80 184 80 101Q80 1 171 1Q247 1 308 111Q360 205 360 291Z"  horiz-adv-x="503" vert-adv-y="1000"  />

      
      <glyph glyph-name="uni37" unicode="&#x37;" d="M58 2L177 172Q239 261 302 337Q394 449 480 558Q360 535 296 535Q224 535 137 542Q119 519 90 492L90 492Q84 497 81 504Q103 532 138 556Q155 567 202 599Q241 598 348 584Q440 573 495 575L504 572Q505 570 505 563Q505 561 503 559Q490 546 380 379L262 200Q192 93 152 17Q142 15 108 3Q80-7 64-7Q58-7 58-2L58 2Z"  horiz-adv-x="503" vert-adv-y="1000"  />

      
      <glyph glyph-name="uni38" unicode="&#x38;" d="M153 446Q153 514 209 560Q262 604 331 604Q388 604 425.50 573Q463 542 463 486Q463 424 408 376Q360 333 295 321Q378 227 378 161Q378 83 318 36Q263-8 183-8Q110-8 66 34.50Q22 77 22 150Q22 253 216 309Q153 395 153 447L153 446M338 593Q289 593 249 558.50Q209 524 209 475Q209 426 231 392L288 326Q431 395 431 502Q431 593 338 593M55 121Q55 67 92 33.50Q129 0 184 0Q246 0 286.50 38Q327 76 327 137Q327 197 238 286Q234 289 226 298Q154 278 109 238Q55 190 55 122L55 121Z"  horiz-adv-x="503" vert-adv-y="1000"  />

      
      <glyph glyph-name="uni39" unicode="&#x39;" d="M216 205Q150 205 112 255Q77 300 77 368Q77 462 145 535.50Q213 609 306 609Q372 609 413 558Q452 511 452 444Q452 289 213 90Q175 59 48-42L28-40Q25-38 23-37Q23-36 24-33Q31-26 163 90Q245 162 290 225Q250 205 217 205L216 205M402 514Q402 555 376 577.50Q350 600 308 600Q238 600 180 489Q128 390 128 315Q128 212 206 212Q289 212 350 325Q402 422 402 514Z"  horiz-adv-x="503" vert-adv-y="1000"  />

      
      <glyph glyph-name="uni3a" unicode="&#x3a;" d="M226 315Q226 280 191 280Q155 280 155 315Q155 329 166 340Q177 351 191 351Q206 351 216 340.50Q226 330 226 315M125 33Q125 18 114.50 7.50Q104-3 89-3Q54-3 54 33Q54 46 65 57Q76 68 89 68Q125 68 125 33Z"  horiz-adv-x="262" vert-adv-y="1000"  />

      
      <glyph glyph-name="uni3b" unicode="&#x3b;" d="M93-15Q93 22 53 25L51 28L53 34Q67 45 132 67Q157 61 157 31Q157-8 110-66Q65-120 26-138L24-138Q20-138 20-132Q20-142 24-142Q32-142 56-100Q93-36 93-16L93-15M234 309Q234 296 222.50 288Q211 280 197 280Q182 280 171 290.50Q160 301 160 316Q160 329 172 341Q184 353 197 353Q234 353 234 309Z"  horiz-adv-x="262" vert-adv-y="1000"  />

      
      <glyph glyph-name="uni3c" unicode="&#x3c;" d="M129 253L554 60L554-8L46 222L46 284L554 514L554 446L129 253Z"  horiz-adv-x="606" vert-adv-y="1000"  />

      
      <glyph glyph-name="uni3d" unicode="&#x3d;" d="M674 221L674 179L22 179L22 221L674 221M674 394L674 350L22 350L22 394L674 394Z"  horiz-adv-x="644" vert-adv-y="1000"  />

      
      <glyph glyph-name="uni3e" unicode="&#x3e;" d="M477 253L52 446L52 514L560 284L560 222L52-8L52 60L477 253Z"  horiz-adv-x="606" vert-adv-y="1000"  />

      
      <glyph glyph-name="uni3f" unicode="&#x3f;" d="M88 233Q88 297 164 357Q200 385 304 465Q379 523 379 570Q379 598 356 614.50Q333 631 304 631Q231 631 182 564Q140 507 132 429Q131 423 126 423Q119 423 119 447Q119 529 163 585Q211 647 290 647Q335 647 368 616Q401 585 401 540Q401 488 348 426Q308 380 234 324Q181 286 129 248L127 246Q112 236 112 213Q112 173 167 173Q181 173 206 182L231 191Q234 191 234 185Q229 174 227 166Q194 156 175 156Q138 156 113 176.50Q88 197 88 233M134 32Q134 17 123.50 6.50Q113-4 98-4Q63-4 63 32Q63 45 74 56Q85 67 98 67Q112 67 123 56.50Q134 46 134 32Z"  horiz-adv-x="382" vert-adv-y="1000"  />

      
      <glyph glyph-name="uni40" unicode="&#x40;" d="M378 305Q378 264 400 236Q422 208 462 208Q525 208 570 279Q611 342 611 408Q611 444 587.50 472Q564 500 529 500Q464 500 419 433Q378 373 378 305M731 556Q700 456 658 310Q640 248 640 230Q640 201 661 201Q720 201 765 282Q803 351 803 417Q803 535 721 606Q643 675 524 675Q389 675 304.50 583Q220 491 220 355Q220 221 309 132Q398 43 532 43Q682 43 774 157L841 157Q792 75 708.50 28Q625-19 529-19Q367-19 257 90Q147 199 147 361Q147 519 256 628Q365 737 524 737Q664 737 764 652Q868 563 868 425Q868 321 801 232Q729 136 629 136Q568 136 565 199L563 198Q507 136 443 136Q378 136 337 183Q296 230 296 296Q296 403 357 484Q423 572 527 572Q606 572 642 494L662 556L731 556Z"  horiz-adv-x="1015" vert-adv-y="1000"  />

      
      <glyph glyph-name="uni41" unicode="&#x41;" d="M843 669Q843 620 736 341L742 340Q756 340 784.50 342Q813 344 827 344Q839 344 843 343Q837 318 819 317L729 313L679 180Q643 84 643 53Q643 33 657.50 20.50Q672 8 692 8Q763 8 887 90L886 80Q782 0 688 0Q580 0 580 70Q580 104 611 192L656 319L568 323L517 234Q486 181 460 149Q326-12 150-12Q70-12 21 17Q-40 53-40 127Q-40 197 34 257Q152 353 350 353Q463 353 551 346L659 561Q738 718 806 718Q843 718 843 669M797 698Q797 706 792 706Q786 706 778 698Q730 662 666 534Q645 491 574 345L663 342L797 698M329 346Q219 346 131 293Q29 231 29 127Q29 64 67 31Q105-2 169-2Q388-2 542 328Q359 346 328 346L329 346Z"  horiz-adv-x="905" vert-adv-y="1000"  />

      
      <glyph glyph-name="uni42" unicode="&#x42;" d="M681 221Q681 114 551 47Q448-6 325-8Q342-8 332-7Q322-6 287-5Q252-4 172-2Q133-1 69 6Q64 6 64 9Q68 10 76 16Q193 46 250 120Q294 178 330 308L377 480Q414 615 435 631Q457 641 497 672L501 671Q503 669 503 666Q503 649 474 566Q440 469 437 457Q384 261 346 196Q282 87 133 20Q207 4 295 4Q437 4 511 59Q610 133 610 235Q610 321 527 349Q506 356 482 368L481 372Q481 373 482 375L482 378Q504 390 552 418Q633 483 633 568Q633 700 449 700Q289 700 148 606Q-11 500-11 349Q-11 304 29 228Q30 221 30 220L28 217L27 217Q8 217-10 282Q-26 339-26 365Q-26 530 120 627Q249 713 421 713Q526 713 601 681Q701 638 701 547Q701 484 625 436Q600 420 493 372Q567 360 617 327Q681 285 681 220L681 221Z"  horiz-adv-x="785" vert-adv-y="1000"  />

      
      <glyph glyph-name="uni43" unicode="&#x43;" d="M279-35Q158-35 76 32Q-12 103-12 222Q-12 332 56 451Q119 562 212 634Q318 716 423 716Q496 716 537 669Q578 622 578 548Q578 415 477 295Q371 170 241 170Q190 170 158 197.50Q126 225 126 275Q126 363 217 447Q302 526 393 541L400 540L402 536Q402 535 401 533Q380 520 350 502Q140 377 140 269Q140 188 224 188Q335 188 448 323Q557 454 557 568Q557 629 524.50 665Q492 701 432 701Q324 701 227 592Q155 512 104 392Q51 266 51 164Q51 72 114 26Q169-15 264-15Q403-15 579 86L579 72Q445-35 279-35Z"  horiz-adv-x="583" vert-adv-y="1000"  />

      
      <glyph glyph-name="uni44" unicode="&#x44;" d="M586 665Q579 655 538 579Q506 520 458 380Q404 222 375 165Q319 54 245 9Q260 8 314 8Q629 8 740 323Q773 417 773 491Q773 599 694 654Q626 702 513 702Q421 702 356 684Q285 664 213 615Q131 559 66 473Q-11 371-11 291Q-11 236 25 191Q26 190 26 185Q25 183 21 183Q-3 195-18 241Q-31 279-31 313Q-31 427 57 528Q135 617 251.50 664.50Q368 712 510 712Q651 712 737 644Q832 570 832 432Q832 312 748 198Q599-4 279-4Q267-4 244.50-1.50Q222 1 210 1Q207 1 207 2L209 4Q266 25 295 112L376 357Q428 512 526 620Q562 660 582 673L586 668L586 665Z"  horiz-adv-x="865" vert-adv-y="1000"  />

      
      <glyph glyph-name="uni46" unicode="&#x46;" d="M735 660Q827 644 912 644Q921 644 924 643L928 639Q925 625 914 608Q901 588 889 588L873 588Q792 588 632 616Q472 644 391 644Q208 644 108 531Q12 423 12 238Q12 174 33 109Q33 109 49 61L49 57Q49 55 46 54L46 53L41 56Q-19 110-19 242Q-19 435 117 567Q253 699 446 699Q510 699 591 685L735 660M381 274Q375 274 366 283L364 288Q367 305 396 306L559 310Q608 493 724 578Q735 586 737 586Q738 586 739 585L741 585L743 579L742 575Q697 530 668 451Q661 432 628 310L658 310Q669 310 679 310Q689 309 688 309L751 309Q773 309 817 312.50Q861 316 883 316Q894 316 894 304Q894 270 840 270Q798 270 618 275Q570 95 532 11Q453-163 352-163Q311-163 311-123Q311-71 355 5Q362 18 436 139Q480 212 480 239Q480 265 460 276L381 274M485 277Q495 258 495 243Q495 211 419.50 68.50Q344-74 344-118Q344-148 371-148Q422-148 485 39Q529 170 550 278L486 276L485 277Z"  horiz-adv-x="886" vert-adv-y="1000"  />

      
      <glyph glyph-name="uni47" unicode="&#x47;" d="M756 631Q756 599 721 545Q594 350 159 181L159 156Q159 90 195 45Q235-3 299-3Q366-3 448 44Q518 84 574 142Q596 211 650 390Q683 407 721 428Q725 428 725 421Q725 374 674 228Q626 90 596 37Q590 26 545-38L685 11Q759 37 817 74L816 60Q747 16 664-19Q617-39 505-85Q459-136 440-152Q395-190 360-190Q323-190 323-164Q323-122 403-85Q421-77 521-44Q536-11 547 35Q561 97 569 114Q421-15 268-15Q106-15 84 160Q-20 134-26 134Q-32 134-32 139Q-32 153 20 165Q24 166 85 177Q97 392 262.50 553Q428 714 643 714Q756 714 756 631M706 600Q706 647 664 672Q629 693 579 693Q490 693 390 629Q200 507 159 197L230 224Q383 282 517 371Q705 496 705 600L706 600M333-162Q333-181 359-181Q414-181 491-89Q474-94 427-109L411-114Q349-133 343-144Q333-151 333-162Z"  horiz-adv-x="826" vert-adv-y="1000"  />

      
      <glyph glyph-name="uni48" unicode="&#x48;" d="M778 686Q799 693 813 693Q852 693 852 654Q852 612 751 551Q709 525 609 478Q483 223 483 80Q483 12 544 12Q650 12 737 116Q819 214 819 323Q819 381 785 403L784 409Q787 412 791 414Q815 401 832.50 365.50Q850 330 850 300Q850 172 735 81Q629-3 497-3Q415-3 415 83Q415 146 450 258Q479 352 518 425L427 376Q381 235 313 137Q217-1 102-1Q69-1 49 20Q29 41 29 74Q29 153 152 239Q211 281 345 347Q384 457 411 508Q456 594 519 643Q504 638 481 638Q436 638 335 649Q243 659 190 659Q55 659 4 544Q-10 498-20 498Q-23 501-24 505Q-24 550 36 611Q128 705 265 705Q312 705 369 690L471 663Q494 660 534 651Q519 626 486 548L432 393L529 443Q628 602 715 655Q736 665 778 686M815 680Q767 680 702 609Q657 560 617 495Q840 604 840 658Q840 680 815 680M100 7Q233 7 336 321Q243 265 166 202Q51 107 51 47Q51 28 67 17Q80 7 100 7Z"  horiz-adv-x="905" vert-adv-y="1000"  />

      
      <glyph glyph-name="uni49" unicode="&#x49;" d="M597 648Q542 648 432.50 659Q323 670 268 670Q205 670 171 659Q127 645 95 602L30 515Q29 514 26 514Q26 516 22 517L21 520Q30 553 77 606Q171 712 327 712Q359 712 503 682Q555 671 627 654L631 649L631 647Q631 643 617 621Q595 579 577 504L547 381Q542 361 536 342Q507 250 467 184L604 126Q605 123 605 110L604 108Q535 139 459 171Q388 79 322 38Q242-12 139-12Q73-12 30 19Q-19 54-19 117Q-19 184 43 219Q94 248 167 248Q253 248 405 204Q434 263 466 357Q504 466 525 512Q561 590 619 648L597 648M204 225Q126 225 71 199Q-2 165-2 96Q-2 45 44 18Q82-5 136-5Q303-5 402 191L303 213Q249 225 203 225L204 225Z"  horiz-adv-x="624" vert-adv-y="1000"  />

      
      <glyph glyph-name="uni4a" unicode="&#x4a;" d="M614 228Q614 207 577 202Q565 201 523 195Q498 189 439 168Q426 134 393 64Q350-27 273-103Q184-191 98-192Q44-193 44-140Q44-55 165 36Q245 96 363 148Q415 337 445 423Q503 587 573 673L600 706L595 705Q440 705 309 641Q173 574 88 449.50Q3 325 4 216Q5 150 36 81L29 74Q-18 173-18 266Q-18 406 82 516Q168 611 311 667Q449 721 578 721Q596 721 608 717L614 712L614 709Q614 704 605 690Q581 640 561 572Q533 477 445 183Q489 198 614 233L614 228M94-182Q179-182 262-66Q331 31 355 130Q303 103 227 57Q170 15 122-35Q55-105 55-148Q55-182 94-182Z"  horiz-adv-x="644" vert-adv-y="1000"  />

      
      <glyph glyph-name="uni4c" unicode="&#x4c;" d="M734 591Q734 470 646 370Q569 282 447 232Q440 229 420 221Q404 235 387 239L382 243L381 243L381 245Q381 247 383 249L388 249Q393 249 412 247Q435 244 436 244Q478 244 542 297Q594 340 627 388Q701 495 701 601Q701 639 683 668Q662 702 626 702Q501 702 428 426Q417 383 382 261Q362 192 302 121Q380 108 474 80Q514 68 554 55Q602 42 636 42Q697 42 749 91L749 78Q630 0 582 0Q517 0 421 28L260 75Q169-3 70-3Q-27-3-27 53Q-27 98 56 119Q112 133 180 133Q206 133 285 124Q315 185 331 286Q351 412 360 445Q385 534 442 602Q536 714 633 714Q681 714 709 675Q734 641 734 591M-17 51Q-17 33 15 23Q38 16 62 16Q172 16 244 79Q180 97 89 97Q57 97 26 88Q-17 76-17 51Z"  horiz-adv-x="764" vert-adv-y="1000"  />

      
      <glyph glyph-name="uni4e" unicode="&#x4e;" d="M633 117Q633 13 725 12Q790 11 912 98L912 84Q808-1 732-1Q656-1 617 54Q583 102 583 181Q583 318 678 465Q733 550 873 701Q787 683 682 627Q581 574 512 513Q512 382 456 238Q393 75 299 10Q279-4 262-4Q231-4 231 54Q231 156 310 287Q373 391 464 484Q473 558 473 583Q473 694 374 694Q283 694 185 610Q106 542 49 446Q-17 334-17 239Q-17 201 7 147L3 144Q-35 212-35 285Q-35 439 94 573.50Q223 708 376 708Q445 708 482 650Q515 599 512 528Q729 701 893 713Q808 607 725 429Q633 232 633 117M245 31Q245 8 260 8Q286 8 354 162Q428 330 456 461Q328 323 274 148Q246 58 246 31L245 31Z"  horiz-adv-x="925" vert-adv-y="1000"  />

      
      <glyph glyph-name="uni4f" unicode="&#x4f;" d="M412 719Q497 719 542 635Q579 566 579 474Q579 368 521 254Q466 144 381 73Q285-8 182-8Q80-8 26 75Q-20 145-20 252Q-20 417 122 561Q230 670 254 670Q256 669 255 666Q249 657 203 611Q134 542 87 414Q42 292 42 188Q42-1 179-1Q283-1 369 111Q432 192 475 317Q520 447 520 554Q520 708 402 708Q269 708 181 452Q179 448 178 448Q175 448 172 454Q193 564 246 633Q311 719 411 719L412 719Z"  horiz-adv-x="624" vert-adv-y="1000"  />

      
      <glyph glyph-name="uni50" unicode="&#x50;" d="M194-182L191-179Q200-154 236-39Q251 17 304 205Q345 350 389 443Q448 567 537 646Q571 676 578 676Q581 676 581 672Q578 666 553 632Q454 500 323 22Q373 12 402 12Q554 12 677 159Q794 299 794 454Q794 567 724.50 632Q655 697 541 697Q404 697 272.50 627Q141 557 60 445Q-7 353-8 270Q-9 221 28 162L28 160Q28 155 21 155Q6 155-9 221Q-23 282-23 303Q-23 428 78 529Q160 611 291 662Q418 712 537 712Q668 712 760 643Q861 566 861 439Q861 264 712 129Q567-1 390-1Q368-1 316 6Q296-74 280-108Q247-178 196-181L194-182Z"  horiz-adv-x="905" vert-adv-y="1000"  />

      
      <glyph glyph-name="uni51" unicode="&#x51;" d="M576-42L581-39L584-39Q590-39 590-55Q590-82 571-122Q550-167 527-167Q523-167 467-119Q348-17 218 22Q120-17 64-18Q-13-19-13 33Q-13 65 38 80Q74 91 115 91Q171 91 267 63Q354 129 417 274Q478 412 478 528Q478 602 448 648Q412 703 342 703Q205 703 117 513Q43 354 43 202Q43 165 54 102Q-19 174-19 295Q-19 437 89 572Q203 714 341 714Q435 714 492 647Q546 584 546 488Q546 233 283 58Q432-9 558-112Q578-68 576-42M-4 31Q-4 0 66 0Q125 0 203 26Q113 55 53 55Q-4 55-4 31Z"  horiz-adv-x="583" vert-adv-y="1000"  />

      
      <glyph glyph-name="uni52" unicode="&#x52;" d="M794 94L794 81Q731 41 698 26Q649 4 591 4Q535 4 487 34Q459 52 410 102Q357 157 332 175Q314 118 286 67Q245-7 211-7L210-5L210-3Q210 5 235 84L267 185Q287 259 340 425Q377 528 480 634Q521 676 530 676Q533 676 533 674L533 667Q524 654 488 601Q423 505 339 198Q343 199 370 201Q494 211 603 321.50Q712 432 712 555Q712 632 648 670Q595 701 513 701Q317 701 158 558Q-6 410-6 216Q-6 196 8 148Q15 124 15 121Q15 118 8 118Q-32 170-32 271Q-32 460 150 592Q317 713 514 713Q622 713 691 669Q774 617 774 515Q774 422 695 341Q630 273 532 232Q482 211 392 191Q424 171 471 132Q488 115 522 82Q529 75 543 61Q588 25 636 25Q695 25 794 94Z"  horiz-adv-x="805" vert-adv-y="1000"  />

      
      <glyph glyph-name="uni53" unicode="&#x53;" d="M238 542Q238 613 291 659Q341 703 413 703Q451 703 479.50 682.50Q508 662 508 625Q508 598 468.50 548Q429 498 404 498Q402 499 402 501Q402 517 431 559Q460 601 460 626Q460 653 445 674.50Q430 696 404 696Q356 696 327.50 662Q299 628 299 579Q299 515 356 411Q420 294 429 243L530 216L536 212Q543 197 543 189Q472 222 430 232Q431 223 431 194Q431 141 387 89Q348 43 295 19Q233-9 164-9Q94-9 45 20Q-14 54-14 119Q-14 204 67 244Q129 275 224 275Q295 275 356 259Q337 296 285 400Q238 493 238 543L238 542M46 102Q46 52 82 25Q115 0 166 0Q247 0 305.50 61.50Q364 123 364 205Q364 220 358 250Q300 261 253 261Q174 261 114 222Q46 177 46 102Z"  horiz-adv-x="563" vert-adv-y="1000"  />

      
      <glyph glyph-name="uni54" unicode="&#x54;" d="M-18 395Q-18 533 101 624Q208 706 352 712Q376 713 406 713Q473 713 605.50 694Q738 675 805 675Q811 669 811 666Q811 648 796 636Q781 624 762 624Q688 624 540.50 647Q393 670 319 670Q187 670 100 604Q3 532 3 404Q3 312 71 221L72 214L69 211L65 212Q42 239 4 295Q-18 338-18 395M273 222Q305 222 348 214Q407 203 407 186Q404 182 400 182Q383 182 350.50 189.50Q318 197 302 197Q227 197 166 168Q86 130 86 66Q86-27 211-27Q415-27 493 230Q508 282 553 431Q564 468 602 541Q648 628 668 628Q670 627 673 623L672 618L587 343Q535 174 461 83Q362-40 212-40Q153-40 114-15Q69 14 69 70Q69 143 137 185Q195 221 272 221L273 222Z"  horiz-adv-x="704" vert-adv-y="1000"  />

      
      <glyph glyph-name="uni55" unicode="&#x55;" d="M862 705Q855 671 803 552L696 309Q622 141 622 67Q622 8 685 8Q744 8 850 67L851 54Q769-6 688-6Q638-6 606 20Q571 48 571 96Q571 163 639 327Q661 379 740 561Q666 404 545 230Q380-8 289-8Q263-8 248 14Q234 33 234 60Q234 131 319 297Q351 359 442 535Q484 617 484 649Q484 689 429 689Q291 689 146 562Q-20 417-20 255Q-20 177 39 109L39 104Q39 100 35 100Q32 100 29 103Q-2 128-19 181Q-34 226-34 273Q-34 441 116 573Q261 700 431 700Q472 700 498 682Q528 662 528 623Q528 566 438 386Q406 323 315 143Q272 57 272 24Q272 1 292 1Q313 1 366 48Q477 146 606 349Q711 514 792 690Q817 698 860 708L862 705Z"  horiz-adv-x="865" vert-adv-y="1000"  />

      
      <glyph glyph-name="uni56" unicode="&#x56;" d="M-44 294Q-44 485 174 603Q354 700 566 700Q587 700 587 682Q587 677 550 637Q461 541 399 402Q332 254 332 133Q332 77 357 43Q385 5 439 5Q539 5 625 121Q686 203 727 320Q769 442 769 540Q769 638 751 665Q742 679 724 703L724 706L727 710L732 712L734 712Q788 712 816 650Q838 602 838 541Q838 428 776 296Q715 170 629 89Q525-8 417-8Q346-8 303 42Q263 88 263 161Q263 261 328 386Q387 500 466 579Q496 609 575 686Q575 691 552 691Q435 691 296 627Q165 567 76 480Q-30 376-30 267Q-30 191 45 131Q43 109 38 111Q-44 199-44 294Z"  horiz-adv-x="865" vert-adv-y="1000"  />

      
      <glyph glyph-name="uni57" unicode="&#x57;" d="M543 651L543 650Q543 640 488 640Q466 640 439 602Q417 571 408 543L319 264Q304 215 269 127Q264 118 241 72Q224 39 221 15L222 10L227 7L228 7Q231 7 237.50 14Q244 21 245 25Q268 56 372 232Q497 444 549 522Q647 670 678 670Q694 670 694 655Q694 649 662 594Q609 502 574.50 377.50Q540 253 540 148Q540 3 622 3Q667 3 726 54Q820 136 873 281Q921 412 921 550Q921 664 866 694Q869 704 884 704Q898 704 914 693Q989 659 990 532Q991 394 923 261.50Q855 129 742 47Q664-10 601-10Q542-10 505.50 27Q469 64 469 123Q469 219 515 346Q556 461 616 553Q622 561 653 602Q677 634 684 654Q682 660 676 662L673 662Q628 638 443 318Q263 7 224-2Q209 3 209 31L209 46Q209 192 286 387Q376 615 489 648Q476 647 429 647Q382 647 289 653.50Q196 660 149 660Q57 660 6 579L-9 549Q-21 525-24 525Q-30 525-30 533Q-28 534-27 540Q-26 543-21 556Q-8 590 42 634Q115 698 232 698Q306 698 389 682Q398 680 543 651Z"  horiz-adv-x="1026" vert-adv-y="1000"  />

      
      <glyph glyph-name="uni59" unicode="&#x59;" d="M809 697Q813 697 813 692Q813 679 721 408Q636 158 610 91Q685 109 816 136Q820 136 820 133Q820 121 807 108Q676 93 602 75Q548-23 477-97Q382-196 301-196Q242-196 242-139Q242-67 358-1Q437 44 540 72Q569 153 713 590Q570 316 520 238Q362-6 249-6Q223-6 207 17Q193 37 193 65Q193 122 271 294L378 530Q416 614 416 648Q416 693 354 693Q306 693 235 655Q179 625 130 584Q-13 464-13 331Q-13 248 66 142L66 140Q66 138 64 136Q63 137 62 137Q-30 224-30 351Q-30 553 196 662Q290 707 371 707Q411 707 438 686Q465 665 465 626Q465 560 387 389Q358 326 275 147Q238 67 238 27Q238 5 255 5Q349 5 530 290Q670 509 737 673Q785 687 805 697L809 697M258-150Q258-189 301-189Q369-189 443-98Q495-34 535 57Q259-47 259-150L258-150Z"  horiz-adv-x="845" vert-adv-y="1000"  />

      
      <glyph glyph-name="uni5a" unicode="&#x5a;" d="M483 331Q465 330 465 335Q466 339 475 352L543 351Q599 428 672 508Q772 618 816 636Q782 634 741 634Q688 634 584 655.50Q480 677 427 677Q292 677 199 553Q113 439 113 300Q113 160 201 160Q289 160 352 301Q405 420 405 521Q405 530 402 549Q399 568 399 577L399 583Q402 586 403 586Q414 586 422 545Q429 510 429 493Q429 399 365 283Q293 152 208 152Q145 152 113 203Q86 245 86 312Q86 397 146 493Q199 579 274 638Q379 721 493 721Q559 721 681 674Q759 644 793 644Q817 644 827 650L831 650Q834 650 834 645L833 642Q776 555 630 353Q629 353 645 354Q660 354 677 354L723 354Q727 354 729 352L728 348L711 335L614 336Q449 149 279 66L471 42Q583 28 663 28Q778 28 848 86Q849 84 849 77L849 74Q848 73 848 71Q724-16 559-16Q425-16 190 33Q112-5 30-5Q-38-5-38 27Q-38 55 17 69Q53 78 96 78Q101 78 253 67Q331 109 404 186Q440 224 529 333Q517 333 483 331M27 53Q-23 53-30 28Q-21 7 28 7Q106 7 169 36Q90 52 27 52L27 53Z"  horiz-adv-x="865" vert-adv-y="1000"  />

      
      <glyph glyph-name="uni5b" unicode="&#x5b;" d="M398 704L393 691L316 691L22-146L100-147L95-161L-41-159L261 704L398 704Z"  horiz-adv-x="342" vert-adv-y="1000"  />

      
      <glyph glyph-name="uni5c" unicode="&#x5c;" d="M49 737L295-19L228-19L-17 737L49 737Z"  horiz-adv-x="278" vert-adv-y="1000"  />

      
      <glyph glyph-name="uni5d" unicode="&#x5d;" d="M-32-147L266 689L188 691L193 705L330 703L23-161L-115-161L-109-147L-32-147Z"  horiz-adv-x="342" vert-adv-y="1000"  />

      
      <glyph glyph-name="uni5e" unicode="&#x5e;" d="M251 768L252 761L249 756L245 754Q225 755 151 838Q78 765 52 755L49 755Q45 755 45 761Q58 777 97 820Q110 834 134 875L200 875Q218 826 221 819Q234 788 251 768Z"   vert-adv-y="1000"  />

      
      <glyph glyph-name="uni5f" unicode="&#x5f;" d="M0-75L556-75L556-125L0-125L0-75Z"  horiz-adv-x="556" vert-adv-y="1000"  />

      
      <glyph glyph-name="uni60" unicode="&#x60;" d="M92 471L94 464L91 459L88 457L86 457Q71 457-1.50 522Q-74 587-74 601Q-74 603-71 606Q-64 605-37 605Q-32 605 14 607Q54 522 92 471Z"   vert-adv-y="1000"  />

      
      <glyph glyph-name="uni61" unicode="&#x61;" d="M398 387Q398 386 397 384Q366 309 327 206Q272 61 272 39Q272 8 318 8Q388 8 484 68L484 56Q423 24 407 17Q359-4 324-4Q291-4 263 10Q230 26 224 55Q146-5 66-5Q-24-5-24 82Q-24 185 57 286Q143 392 243 392Q279 392 330 359Q389 392 393 392Q398 392 398 387M313 345L289 366Q252 383 230 383Q165 383 98 254Q37 136 37 64Q37 7 95 7Q147 7 224 74Q227 115 262 205Q281 255 315 335L313 345Z"  horiz-adv-x="483" vert-adv-y="1000"  />

      
      <glyph glyph-name="uni64" unicode="&#x64;" d="M474 702L480 703L481 700Q481 648 421 502Q398 449 336 296Q252 86 252 40Q252 5 296 5Q359 5 449 59L449 44Q352-5 298-5Q221-5 204 51Q131-8 75-8Q31-8 4.50 16.50Q-22 41-22 84Q-22 177 53 279Q133 388 223 388Q246 388 299 359L404 658Q426 668 474 702M223 381Q155 381 92 253Q37 141 37 63Q37 3 83 3Q149 3 201 73Q211 135 238 205Q242 216 288 333Q267 381 223 381Z"  horiz-adv-x="442" vert-adv-y="1000"  />

      
      <glyph glyph-name="uni65" unicode="&#x65;" d="M45 88Q45 5 121 4Q168 3 221 27Q271 49 306 84L306 68Q208-6 118-6Q52-6 21 15Q-17 41-17 104Q-18 257 104 353Q151 390 175 390Q199 390 213 371.50Q227 353 227 328Q227 231 45 108L45 88M205 365Q199 370 192 371Q133 371 86 272Q50 196 44 121Q98 158 149 223Q208 299 208 352Q208 356 205 365Z"  horiz-adv-x="301" vert-adv-y="1000"  />

      
      <glyph glyph-name="uni66" unicode="&#x66;" d="M341 660Q341 542 287 418Q234 298 148 212L90 9Q111 7 138 7Q245 7 346 87Q347 86 347 80Q347 73 345 70Q248-5 125-6Q107-6 87-3L67-77Q59-111 52-145Q38-193 16-193Q-5-193-5-166Q-5-99 33 8Q-18 28-18 74Q-18 119 3 190Q29 278 60 278Q78 278 83 256L91 222Q144 388 171 457Q232 612 289 664Q312 685 323 685Q341 685 341 660M319 676Q276 658 224 476L156 238Q209 291 274 461Q329 607 329 666Q329 676 319 676M82 197Q82 223 65 228L59 224Q32 183 19 94Q39 113 69 137Q70 143 77 167Q82 185 82 197M18 80Q16 62 16 59Q16 27 37 22L66 119L18 80Z"  horiz-adv-x="342" vert-adv-y="1000"  />

      
      <glyph glyph-name="uni68" unicode="&#x68;" d="M250 704Q252 702 252 700Q252 697 232 637Q174 462 57 173Q44 143 18 82Q6 48 0 16Q2 8 7 8Q11 8 56 92Q107 188 163 265Q251 387 303 387Q343 387 343 335Q343 291 295 188.50Q247 86 247 47Q247 5 304 5Q361 5 441 67L441 55Q365-5 299-5Q254-5 226 20Q198 45 198 90Q198 126 249 236.50Q300 347 299 371L300 374Q299 378 295 378Q250 378 159 244Q95 150 51 63Q40 40 20 6Q14 0 5 0Q-4 0-10 12Q-22 54-22 75Q-22 114 8 196L180 666Q199 673 249 704L250 704Z"  horiz-adv-x="442" vert-adv-y="1000"  />

      
      <glyph glyph-name="uni6a" unicode="&#x6a;" d="M154 350Q71 315 52 297Q26 273-5 198Q-10 220-10 215Q-10 230 7 262Q31 307 71 329Q92 341 150 358Q202 374 227 391L230 391Q235 391 235 383Q235 376 150 148Q200 143 236 133Q300 115 303 92Q302 86 298 86Q291 90 267 102Q216 129 144 132L90-11Q72-59 45-134Q40-155 30-180L24-182Q22-182 17-180Q2-172-7-92Q-13-38-13 13Q-13 87-1 107Q15 133 83 148L154 350M-3-54Q-3-79 12-148Q23-32 76 129Q28 109 9 52Q-2 18-3-54M281 514Q281 498 270 487Q259 476 243 476Q227 476 215 487Q203 498 203 514Q203 530 215 542Q227 554 243 554Q259 554 270 542Q281 530 281 514Z"  horiz-adv-x="301" vert-adv-y="1000"  />

      
      <glyph glyph-name="uni6b" unicode="&#x6b;" d="M245 698Q245 697 246.50 697Q248 697 248 695Q248 610 194 492Q167 438 107 294L57 157Q51 142 28.50 83.50Q6 25 6 11Q6 8 12 6Q14 7 18 11Q26 23 64 100Q127 227 162 278Q239 389 315 389Q340 389 357.50 372Q375 355 375 330Q375 258 285 205Q215 164 130 147Q172 126 188 113.50Q204 101 228 68Q252 35 266 23Q289 3 314 3Q353 3 388 24Q406 34 450 72L450 58Q409 24 384 11Q348-8 306-8Q242-8 185 39Q150 68 97 139L62 62Q37 8 19-3Q18-4 8-4Q-4-4-12 28Q-18 52-18 70Q-18 124 6 187Q18 216 50 300Q88 399 175 663Q213 678 244 698L245 698M289 370Q245 370 182 283Q140 224 105 154Q113 154 126 156Q181 164 248.50 226.50Q316 289 316 342Q316 370 289 370Z"  horiz-adv-x="442" vert-adv-y="1000"  />

      
      <glyph glyph-name="uni6c" unicode="&#x6c;" d="M257 701Q259 701 259 699Q259 698 258 696L129 316Q124 301 76 170Q34 55 34 39Q34 2 80 1Q138 0 229 56L229 42Q137-8 80-8Q39-8 14 13.50Q-11 35-11 75Q-11 123 17 197Q30 228 63 318L188 668L254 701L257 701Z"  horiz-adv-x="222" vert-adv-y="1000"  />

      
      <glyph glyph-name="uni6d" unicode="&#x6d;" d="M661 54Q584-1 520-1Q475-1 447.50 23.50Q420 48 420 93Q420 132 449 202Q460 230 494 310Q511 350 511 372Q511 373 509 375L505 375Q501 373 487 366Q445 347 365 227Q296 124 265.50 60.50Q235-3 220-3Q204-3 194 18Q186 36 186 54Q186 99 227 209L286 368L287 368L287 370L286 372L283 374L282 374Q238 374 147 238Q81 139 39 51Q12-5-7-5Q-29-5-30 66Q-31 124-3 205Q6 231 50 337Q55 350 56 351Q57 352 70 359Q102 377 126 387Q130 386 130 381Q130 377 124 361L-10 10Q-9 8-4 8Q13 25 75 148Q111 220 167 291Q242 387 292 387Q309 387 319.50 368.50Q330 350 330 332Q330 282 296 205Q281 173 240 81Q216 27 216 10Q216 8 218 8L225 8Q225 11 265 84Q432 389 515 389Q534 389 544.50 372Q555 355 555 335Q555 288 512 189Q469 90 469 45Q469 10 520 10Q572 10 660 67L660 53L661 54Z"  horiz-adv-x="664" vert-adv-y="1000"  />

      
      <glyph glyph-name="uni6e" unicode="&#x6e;" d="M140 385L142 382Q136 363 63 189Q-1 37-1 21Q-1 17 3 17L8 19Q24 35 39 66Q45 80 64 117Q96 178 170 271Q258 382 301 382Q317 382 328.50 365Q340 348 340 331Q340 286 293.50 185Q247 84 247 39Q247 8 297 8Q336 8 374 26Q391 34 441 68L442 55Q369-5 294-5Q253-5 226 18.50Q199 42 199 83Q199 123 249 228Q299 333 299 367Q298 368 295 368Q281 368 233 323Q135 231 58 82Q51 67 29 22Q21 6 7 1Q-22 1-22 58Q-22 117 11 206Q30 258 65 352Q92 368 138 386L140 385Z"  horiz-adv-x="442" vert-adv-y="1000"  />

      
      <glyph glyph-name="uni6f" unicode="&#x6f;" d="M38 90Q38 8 91 8Q178 8 235 168Q179 248 179 327Q179 427 232 427Q270 427 289 384Q303 352 304 308Q305 246 269 159Q307 127 353 127Q387 127 421 145L420 132Q389 115 349 115Q305 115 263 143Q175-7 81-7Q31-7 3 21Q-25 49-25 99Q-25 168 14 239Q50 306 107 352Q149 386 167 386Q172 386 172 382Q172 379 157 363Q39 238 39 91L38 90M224 407L219 408Q196 402 196 344Q196 267 241 190Q252 243 252 303Q252 386 224 407Z"  horiz-adv-x="423" vert-adv-y="1000"  />

      
      <glyph glyph-name="uni70" unicode="&#x70;" d="M153 352Q26 282-6 163Q-10 149-14 149Q-17 149-17 152Q-17 164-4 203Q32 311 160 367L176 406Q203 415 239 423Q240 422 240 417Q240 409 231 388Q253 390 256 390Q397 390 397 275Q397 157 242 41Q292 7 336 7Q378 7 412 21Q435 30 479 58L479 45Q397-5 338-5Q292-5 210 24Q145-4 86-4Q62-71 37-164L-23-198Q-23-162 30 2Q-25 21-25 62Q-25 113 43 113Q45 113 67 111L153 352M219 55Q329 156 330 268Q330 316 304 345Q278 374 231 374L224 374Q190 288 124 98Q171 78 219 55M64 101Q5 93 5 52Q5 25 32 8L64 101M190 33Q167 55 119 84L89 2Q133 9 190 33Z"  horiz-adv-x="503" vert-adv-y="1000"  />

      
      <glyph glyph-name="uni71" unicode="&#x71;" d="M389 393L392 390Q381 359 363 312Q182-162 182-178Q182-181 186-181Q187-181 189-180Q193-173 234-94Q260-42 333 1Q370 23 461 62L462 48Q343 0 307-30Q266-64 205-171Q195-189 184-190Q161-181 161-124Q161-64 201 35Q117-4 75-4Q-23-4-23 80Q-23 184 55 285Q139 394 239 394Q274 394 326 366L389 393M236 386Q161 386 96 265Q38 157 38 74Q38 7 104 7Q126 7 161 26Q193 44 209 62L313 342Q272 386 236 386Z"  horiz-adv-x="463" vert-adv-y="1000"  />

      
      <glyph glyph-name="uni72" unicode="&#x72;" d="M157 382L157 376Q140 323 105 240Q88 200 54 120Q17 32 17 7Q19 5 21 5Q24 5 55 63Q93 134 148 225L148 231Q148 251 149 264Q152 304 191.50 350Q231 396 269 396Q294 396 294 370Q294 370 234 310Q174 250 174 222Q174 171 209 142.50Q244 114 296 114Q321 114 336 118L346 105Q330 102 295 102Q201 102 153 209Q123 162 46 24Q42 12 26-8L18-8Q19-8 13-7Q-16 17-16 57Q-16 105 21 203Q36 242 78 353Q109 371 153 386L157 382Z"  horiz-adv-x="322" vert-adv-y="1000"  />

      
      <glyph glyph-name="uni73" unicode="&#x73;" d="M176 403Q211 403 211 358Q211 311 163 239Q186 156 186 134Q186 68 115 14Q148 3 178 3Q245 3 324 70L324 54Q244-8 181-8Q151-8 104 7Q79-9 47-9Q-17-9-17 43Q-17 66 0 86Q46 122 109 190Q99 227 99 273Q99 314 117 354Q139 403 176 403M194 351Q194 379 178 388Q166 388 156.50 368.50Q147 349 147 335L147 310Q147 287 159 252Q194 314 194 350L194 351M132 81Q132 102 125 131L113 181Q98 161 60.50 128Q23 95 6 76Q22 70 51.50 47.50Q81 25 99 19Q132 49 132 81Z"  horiz-adv-x="322" vert-adv-y="1000"  />

      
      <glyph glyph-name="uni74" unicode="&#x74;" d="M38 352L70 352L135 533L204 543L133 352L252 352L233 328L125 328L73 184Q35 79 35 47Q35 1 90 1Q157 1 268 94L268 79Q157-9 85-9Q48-9 20 8Q-13 28-13 63Q-13 117 15 197Q26 229 62 329L21 329L38 352Z"  horiz-adv-x="262" vert-adv-y="1000"  />

      
      <glyph glyph-name="uni75" unicode="&#x75;" d="M148 390L148 387Q148 381 69 181Q27 74 27 40Q27 19 54 8Q59 8 63 7L72 7Q100 7 138 30Q157 41 198 71Q211 139 242 221L298 367Q325 378 370 389L374 386L374 383Q351 334 305 207Q254 66 254 39Q254 5 304 5Q368 5 459 75L459 59Q371-7 303-7Q272-7 242 9Q208 27 202 55Q132-4 69-4Q33-4 7 15Q-22 36-22 70Q-22 109 18 218Q30 251 74 369Q123 388 144 392L148 390Z"  horiz-adv-x="463" vert-adv-y="1000"  />

      
      <glyph glyph-name="uni76" unicode="&#x76;" d="M30 42Q30 3 77 3Q132 3 187 58Q235 106 256 164Q207 249 207 305Q207 412 269 412Q296 412 312 377Q325 348 325 317Q326 246 282 156Q323 114 392 114Q405 114 424 118L428 112L427 107Q425 97 401 97Q315 97 275 146Q178-8 68-9Q29-9 3 11Q-23 31-23 69Q-23 97 15 207L66 354L144 386L78 209Q30 80 30 42M282 335Q282 378 268 396L260 400Q230 393 230 312Q230 259 262 181Q282 247 282 308L282 335Z"  horiz-adv-x="442" vert-adv-y="1000"  />

      
      <glyph glyph-name="uni77" unicode="&#x77;" d="M138 390L71 212Q19 74 19 49Q19 5 67 5Q105 5 180 62L180 64Q180 101 278 356L351 393L353 389Q234 80 234 45Q234 7 279 7Q334 7 386 65Q425 109 453 172Q408 252 408 309Q408 415 466 415Q521 415 521 314Q521 261 474 158Q516 114 582 114Q588 115 618 118L619 103Q612 102 589 102Q527 102 468 149Q442 92 382 46Q318-4 260-4Q205-4 180 51Q106-4 49-5Q15-6-8 12.50Q-31 31-31 64Q-31 102 7 207Q17 234 63 354Q135 390 137 392L138 390M456 403Q429 397 429 330Q429 239 457 183Q479 284 479 339Q479 397 456 403Z"  horiz-adv-x="644" vert-adv-y="1000"  />

      
      <glyph glyph-name="uni78" unicode="&#x78;" d="M131 369Q96 369 33.50 334.50Q-29 300-18 300Q-21 300-21 305Q-21 325 45 355Q105 382 131 382Q163 382 197 356Q233 327 233 296Q233 293 231 283Q319 386 391 386Q436 386 436 340Q436 256 233 193Q206 138 206 88Q206 50 228.50 26Q251 2 289 2Q368 2 463 82L464 67Q376-7 283-7Q179-7 171 91Q104-5 25-5Q4-5-10 10Q-24 25-24 46Q-24 100 47 141Q109 177 167 180Q197 257 197 301Q197 331 179 350Q161 369 131 369M413 348Q413 374 387 374Q340 374 292 311Q257 265 234 205Q413 270 413 349L413 348M29 3Q73 3 112 65Q126 88 160 167Q-6 112-6 41Q-6 3 29 3Z"  horiz-adv-x="483" vert-adv-y="1000"  />

      
      <glyph glyph-name="uni79" unicode="&#x79;" d="M145 384Q30 102 30 53Q30 8 70 8Q110 8 191 62L294 352Q302 356 366 392Q369 392 369 389Q369 378 297 187Q227 2 209-37Q261-23 333 8Q414 43 448 70L447 56Q342 1 205-49Q130-190 60-190Q46-190 35-179Q31-168 31-165Q31-103 145-61L182 41Q117-3 65-3Q-15-3-15 79Q-15 125 20 217Q33 250 74 356L143 389Q145 387 145 384M45-170L49-178Q56-182 61-182Q90-182 111-140Q125-113 139-74Q84-107 80-110Q44-137 44-163L44-167Q45-168 45-170Z"  horiz-adv-x="442" vert-adv-y="1000"  />

      
      <glyph glyph-name="uni7a" unicode="&#x7a;" d="M196 374Q68 374 68 249Q68 235 69 228Q44 266 44 292Q44 334 78 362Q109 388 152 388Q172 388 211 381.50Q250 375 270 375Q278 375 295 378.50Q312 382 320 382Q326 382 326 377Q326 355 264 294Q222 252 184 222Q103 157 73 125Q17 66 4 8Q14 32 44.50 54Q75 76 101 76Q126 76 179 44Q232 12 251 12Q294 12 363 66L363 54Q281-3 220-3Q189-3 135 26.50Q81 56 72 56Q58 56 5-1Q3-2 0-2Q-9-2-14 26Q-18 48-18 61Q-18 126 71 200Q99 224 216 299Q286 344 305 371Q286 367 256 367Q246 367 226 370.50Q206 374 196 374Z"  horiz-adv-x="363" vert-adv-y="1000"  />

      
      <glyph glyph-name="uni7b" unicode="&#x7b;" d="M122 473L121 516Q119 602 132 647Q154 722 225 722L292 722L292 657L248 657Q202 657 202 575L202 462Q202 414 199 390Q194 348 173 315Q150 275 114 265L114 263Q204 236 202 64L201-23Q200-131 248-131L292-131L292-196L225-196Q177-196 148-154Q123-118 123-67L123 104Q123 150 105 187Q83 234 42 234L42 294Q97 294 114 362Q124 400 122 473Z"  horiz-adv-x="334" vert-adv-y="1000"  />

      
      <glyph glyph-name="uni7c" unicode="&#x7c;" d="M167 737L167-19L94-19L94 737L167 737Z"  horiz-adv-x="260" vert-adv-y="1000"  />

      
      <glyph glyph-name="uni7d" unicode="&#x7d;" d="M211 104L211-67Q211-118 186-154Q157-196 109-196L42-196L42-131L86-131Q134-131 132-23Q131 31 131 63Q131 140 144 181Q165 247 220 263L219 265Q181 276 156 321Q132 362 132 404L132 575Q132 657 86 657L42 657L42 722L109 722Q213 722 213 536Q213 537 213 526Q212 515 212 504L212 473Q212 394 220 361Q236 294 292 294L292 234Q251 234 229 187Q211 150 211 104Z"  horiz-adv-x="334" vert-adv-y="1000"  />

      
      <glyph glyph-name="uni7e" unicode="&#x7e;" d="M20 779Q20 782 29 797Q68 863 116 863Q136 863 183 838Q230 813 243 813Q265 813 279 832Q297 857 306 864L310 864Q311 863 313 863Q316 860 316 855Q316 831 278.50 799.50Q241 768 217 768Q194 768 146 793.50Q98 819 87 819Q69 819 49 794.50Q29 770 23 770Q20 770 20 779Z"   vert-adv-y="1000"  />

      
      <glyph glyph-name="uni80" unicode="&#x80;" d="M557 568Q557 629 524.50 665Q492 701 432 701Q331 701 238 603Q190 553 156 493L517 370L485 362Q400 391 203 456L145 475Q119 426 105 392L467 269L435 261Q304 306 153 355L97 373Q51 253 51 164Q51 72 114 26Q169-15 264-15Q403-15 579 86L579 72Q445-35 279-35Q158-35 76 32Q-12 103-12 222Q-12 307 28 396L-128 449L-101 462L37 415Q61 462 84 495Q17 518-79 550L-51 564L96 514Q147 584 212 634Q318 716 423 716Q496 716 537 669Q578 622 578 548L557 568Z"  horiz-adv-x="583" vert-adv-y="1000"  />

      
      <glyph glyph-name="uni201A" unicode="&#x201A;" d="M34 25L33 28Q33 29 34 31L34 33L38 37Q103 65 114 65Q125 65 132.50 53.50Q140 42 140 30Q140-8 92-67Q44-126 7-139Q2-137 2-133L3-130Q74-61 74-16Q74 21 34 25Z"  horiz-adv-x="204" vert-adv-y="1000"  />

      
      <glyph glyph-name="uni0192" unicode="&#x0192;" d="M251 768L252 761L249 756L245 754Q225 755 151 838Q78 765 52 755L49 755Q45 755 45 761Q58 777 97 820Q110 834 134 875L200 875Q218 826 221 819Q234 788 251 768Z"   vert-adv-y="1000"  />

      
      <glyph glyph-name="uni201E" unicode="&#x201E;" d="M164 30L164 32L167 37Q191 49 242 64Q264 57 264 32Q264-14 221-65Q186-107 138-137L133-139Q129-135 129-132Q203-40 203-23Q203-1 164 30M37 20Q16 26 16 33Q16 37 19 38Q44 50 93 65Q116 59 116 28Q116-6 66-70Q15-137-17-137L-21-132Q-8-119 17-92Q54-52 54-22Q54 12 37 20Z"  horiz-adv-x="342" vert-adv-y="1000"  />

      
      <glyph glyph-name="uni2026" unicode="&#x2026;" d="M115 0L115 106L219 106L219 0L115 0M448 0L448 106L552 106L552 0L448 0M781 0L781 106L885 106L885 0L781 0Z"  horiz-adv-x="1000" vert-adv-y="1000"  />

      
      <glyph glyph-name="uni2020" unicode="&#x2020;" d="M194 443L165 441Q145 440 103.50 427.50Q62 415 39 415Q25 415 12.50 426Q0 437 0 451Q0 465 13.50 476Q27 487 41 487Q48 487 124 468Q164 463 199 458Q216 498 225 550Q229 574 239 644Q247 694 281 694Q314 694 314 656Q314 634 283 586Q243 524 239 514Q231 493 218 458L236 458Q261 458 309 472.50Q357 487 380 487Q395 487 411 479Q428 468 428 454Q429 415 378 415Q357 415 300 430Q254 442 212 442Q185 352 187 272Q125 205 82 81Q79 76 9-131L-10-131Q17-60 59 57Q100 171 100 253L100 262Q99 268 99 271Q153 339 194 443Z"  horiz-adv-x="363" vert-adv-y="1000"  />

      
      <glyph glyph-name="uni02C6" unicode="&#x02C6;" d="M93 600Q93 543 119 503Q139 472 138 467L136 464L133 462L130 462Q113 462 79.50 501Q46 540 41 559Q-46 462-60 462Q-64 462-64 470Q-64 501-27 539Q16 583 27 604L94 604L93 600Z"   vert-adv-y="1000"  />

      
      <glyph glyph-name="uni2039" unicode="&#x2039;" d="M88 231L88 323L245 446L245 358L140 277L245 196L245 108L88 231Z"  horiz-adv-x="333" vert-adv-y="1000"  />

      
      <glyph glyph-name="uni0152" unicode="&#x0152;" d="M556 477Q556 427 540 338Q554 348 592 357Q634 366 648 374.50Q662 383 666 430Q667 446 670 492Q674 549 678 570Q686 614 705 644Q758 729 839 729Q881 729 909 706Q937 683 937 642Q937 551 791 446Q786 449 785 451L785 456Q836 497 872 546Q918 608 918 659Q918 711 869 711Q790 711 728 512Q722 490 703 428Q685 372 657 358Q647 353 617 338Q559 308 517 255Q471 195 471 135Q471 73 511 38.50Q551 4 614 4Q723 4 828 79Q943 161 943 265Q943 267 945 267Q950 267 956 242.50Q962 218 962 208Q962 148 897 86Q795-11 627-11Q468-11 408 105Q344 50 303 26Q238-12 180-12Q71-12 13 66Q-39 135-39 248Q-39 453 171 629Q218 668 235 672L238 668Q222 637 181 590Q136 539 121 514Q24 350 24 182Q24 106 52 59Q86 1 157 1Q265 1 353 117Q415 198 457.50 324.50Q500 451 500 553Q500 695 402 695Q300 695 218 540Q198 486 177 431Q174 431 172 436Q183 544 237 620Q301 710 401 710Q481 710 523 629Q556 565 556 477Z"  horiz-adv-x="1006" vert-adv-y="1000"  />

      
      <glyph glyph-name="uni2018" unicode="&#x2018;" d="M221 563L221 557Q182 534 139 525Q115 531 115 562Q115 629 243 728Q245 729 249 729Q252 729 252 725Q252 736 248 736Q240 736 216 692Q180 626 180 606Q180 580 198 573Q221 564 221 563Z"  horiz-adv-x="222" vert-adv-y="1000"  />

      
      <glyph glyph-name="uni2019" unicode="&#x2019;" d="M209 645Q209 668 201 677Q200 678 173 694L171 698Q174 704 206.50 717Q239 730 248 730Q271 730 271 693Q271 652 225 597Q183 548 141 528Q135 530 135 534Q135 524 139 524Q147 524 172 566Q209 627 209 644L209 645Z"  horiz-adv-x="222" vert-adv-y="1000"  />

      
      <glyph glyph-name="uni201C" unicode="&#x201C;" d="M214 562L214 559Q214 555 211 556Q149 528 137 528Q114 528 114 560Q114 632 208 705Q220 714 240 728Q242 729 247 729Q249 727 249 725Q175 631 175 614Q175 592 214 562M362 561L362 559Q360 558 355 554Q306 527 286 527Q276 527 269 537.50Q262 548 262 559Q262 639 389 728L395 728Q399 728 399 725L398 723L398 720Q324 649 324 613Q324 584 339 577Q359 567 362 561Z"  horiz-adv-x="342" vert-adv-y="1000"  />

      
      <glyph glyph-name="uni201D" unicode="&#x201D;" d="M314 696L314 697L315 701Q320 705 352.50 717Q385 729 390 729Q414 729 414 692Q414 652 368.50 596.50Q323 541 283 527Q278 529 278 533L315 574Q353 616 353 644Q353 674 336 683Q315 694 314 696M203 645Q203 674 194 678Q191 680 167 694L165 698Q168 704 200.50 717Q233 730 242 730Q265 730 265 693Q265 653 218 598Q176 548 135 528Q129 530 129 534Q129 524 133 524Q141 524 166 566Q203 627 203 644L203 645Z"  horiz-adv-x="342" vert-adv-y="1000"  />

      
      <glyph glyph-name="uni2022" unicode="&#x2022;" d="M169 223Q114 223 75 260.50Q36 298 36 353Q36 408 75 445.50Q114 483 169 483Q223 483 260 445Q297 407 297 353Q297 298 260.50 260.50Q224 223 169 223Z"  horiz-adv-x="333" vert-adv-y="1000"  />

      
      <glyph glyph-name="uni2013" unicode="&#x2013;" d="M434 223L417 182L8 182L24 223L434 223Z"  horiz-adv-x="503" vert-adv-y="1000"  />

      
      <glyph glyph-name="uni2014" unicode="&#x2014;" d="M674 307L674 262L22 262L22 307L674 307Z"  horiz-adv-x="644" vert-adv-y="1000"  />

      
      <glyph glyph-name="uni02DC" unicode="&#x02DC;" d="M-91 485Q-99 485-99 491Q-95 521-62.50 550Q-30 579 1 579Q20 579 65 554Q110 529 121 529Q143 529 160 546Q162 549 187 581L191 581Q198 581 198 573Q186 541 158 514Q126 483 96 483Q76 483 28 509Q-20 535-32 535Q-57 535-87 487L-90 485L-91 485Z"   vert-adv-y="1000"  />

      
      <glyph glyph-name="uni2122" unicode="&#x2122;" d="M298 541L281 540L282 549Q286 589 246 604Q230 610 173 612L173 319Q173 292 220 292L220 275L70 275L70 292Q118 292 118 319L119 612Q62 610 43 602Q9 588 11 540L-6 541L-3 633L295 633L298 541M556 362L674 633L780 633L780 616L771 616Q734 616 734 592L734 319Q734 292 781 292L781 275L630 275L630 292Q678 292 678 319L678 579L552 275L535 275L400 564L400 319Q400 292 448 292L448 275L327 275L327 292Q375 292 375 319L375 583Q375 607 360 613Q352 616 325 616L325 633L432 633L556 362Z"  horiz-adv-x="843" vert-adv-y="1000"  />

      
      <glyph glyph-name="uni203A" unicode="&#x203A;" d="M193 277L88 358L88 446L245 323L245 231L88 108L88 196L193 277Z"  horiz-adv-x="333" vert-adv-y="1000"  />

      
      <glyph glyph-name="uni0153" unicode="&#x0153;" d="M447 393Q474 393 490 375Q506 357 506 330Q506 266 432 200Q378 151 300 113L300 101Q300 56 324 29Q348 2 392 2Q469 2 583 86L583 72Q479-8 362-8Q314-8 279 16Q239 43 239 89Q161-8 75-8Q30-8 1 16.50Q-28 41-28 85Q-28 176 58 283Q148 396 236 396Q306 396 325 318Q373 362 380 368Q415 393 448 393L447 393M238 386Q168 386 97 268Q31 158 31 84Q31 3 89 3Q169 3 232 127Q287 235 287 325Q287 348 273.50 367Q260 386 238 386M452 382Q415 382 366 298Q324 226 314 179Q311 163 301 122Q382 178 418 227Q476 306 476 348Q476 382 452 382Z"  horiz-adv-x="583" vert-adv-y="1000"  />

      
      <glyph glyph-name="uni0178" unicode="&#x0178;" d="M642 783Q642 767 631 755.50Q620 744 604 744Q588 744 576.50 755.50Q565 767 565 783Q565 799 576.50 810Q588 821 604 821Q618 821 630 809Q642 797 642 783M492 789L492 774Q492 762 480 753Q468 744 455 744Q416 744 416 781Q416 797 427.50 808.50Q439 820 455 820Q466 820 479 810Q492 800 492 789M809 697Q813 697 813 692Q813 679 721 408Q636 158 610 91Q685 109 816 136Q820 136 820 133Q820 121 807 108Q676 93 602 75Q548-23 477-97Q382-196 301-196Q242-196 242-139Q242-67 358-1Q437 44 540 72Q569 153 713 590Q570 316 520 238Q362-6 249-6Q223-6 207 17Q193 37 193 65Q193 122 271 294L378 530Q416 614 416 648Q416 693 354 693Q306 693 235 655Q179 625 130 584Q-13 464-13 331Q-13 248 66 142L66 140Q66 138 64 136Q63 137 62 137Q-30 224-30 351Q-30 553 196 662Q290 707 371 707Q411 707 438 686Q465 665 465 626Q465 560 387 389Q358 326 275 147Q238 67 238 27Q238 5 255 5Q349 5 530 290Q670 509 737 673Q785 687 805 697L809 697M258-150Q258-189 301-189Q369-189 443-98Q495-34 535 57Q259-47 259-150L258-150Z"  horiz-adv-x="845" vert-adv-y="1000"  />

      
      <glyph glyph-name="unia1" unicode="&#xa1;" d="M206 453L88 5L5-10L196 454L206 453M269 584Q269 560 253 556Q243 549 233 549Q221 549 214 556Q198 560 198 584Q198 619 240 619Q251 619 260 607Q269 595 269 584Z"  horiz-adv-x="322" vert-adv-y="1000"  />

      
      <glyph glyph-name="unia2" unicode="&#xa2;" d="M211 374Q147 352 97 251Q52 160 52 84Q52 29 91 11L211 374M188 237Q238 272 248 282Q282 313 282 344Q282 378 238 378L234 378L188 237M270 487L237 388Q262 388 278 371Q294 354 294 329Q294 293 254 233Q212 169 179 169Q172 169 167 174L111 5Q115 4 129 4Q228 4 347 86L347 70Q273 34 231 19Q160-7 107-7L80-89L58-89L85-7Q-15 0-15 88Q-15 176 58 273.50Q131 371 215 386L248 487L270 487Z"  horiz-adv-x="342" vert-adv-y="1000"  />

      
      <glyph glyph-name="unia3" unicode="&#xa3;" d="M295 185Q295 237 269 341L125 341L125 365L266 365Q259 399 259 444Q259 544 320 614.50Q381 685 480 685Q547 685 594 652Q648 615 648 551Q648 528 641 515Q638 513 636 510Q635 510 633.50 512.50Q632 515 624 548L622 557Q593 674 470 674Q395 674 352.50 627Q310 580 310 504Q310 427 331 365L510 365L510 341L336 341Q346 274 346 257Q346 166 273 81Q298 76 373 56Q434 40 474 40Q482 40 496 44Q510 48 518 48Q522 48 523 44Q499 10 494 5Q480-6 447-6Q376-6 220 36Q144-7 81-7Q56-7 29 2Q-6 13-6 33Q-6 107 85 107Q126 107 256 86Q295 113 295 184L295 185M59 62Q9 62 3 39Q9 9 81 9Q118 9 144 19Q148 20 203 42Q105 62 58 62L59 62Z"  horiz-adv-x="644" vert-adv-y="1000"  />

      
      <glyph glyph-name="unia4" unicode="&#xa4;" d="M283 869L283 866Q132 756 103 756L99 762Q137 810 186 876Q210 874 212 874Q223 874 245 875.50Q267 877 278 877Q283 877 283 869Z"   vert-adv-y="1000"  />

      
      <glyph glyph-name="unia5" unicode="&#xa5;" d="M274 875Q281 875 281 870Q276 858 223 804Q221 802 192 756L126 756Q95 849 73 866L73 870L76 874L79 876L83 876Q103 876 173 794Q195 819 273 875L274 875Z"   vert-adv-y="1000"  />

      
      <glyph glyph-name="unia7" unicode="&#xa7;" d="M359 728Q395 728 419.50 706.50Q444 685 445 650Q446 623 420 588L417 588Q413 588 413 591Q413 599 417 613Q421 627 421 635Q421 668 395.50 690Q370 712 336 712Q290 712 261 680Q232 648 232 602Q232 558 295.50 444Q359 330 359 289Q359 157 216 97Q231 55 231 11Q231-59 179-108Q127-157 56-157Q11-157-18-140Q-54-119-54-78Q-54-66-47.50-47.50Q-41-29-33-26Q-28-29-21.50-66Q-15-103-6-113Q16-138 72-138Q125-138 154.50-108Q184-78 184-25Q184 18 119.50 129Q55 240 55 281Q55 412 203 470Q182 524 182 555Q182 627 234.50 677.50Q287 728 359 728M211 454Q166 447 135 418Q101 387 101 344Q101 302 144 227L209 114Q254 123 283 156Q312 189 312 234Q312 279 273 347Q250 387 211 454Z"  horiz-adv-x="442" vert-adv-y="1000"  />

      
      <glyph glyph-name="unia8" unicode="&#xa8;" d="M116 537Q129 537 138 524.50Q147 512 147 499Q147 486 137.50 474Q128 462 116 462L102 462Q90 462 80 474Q70 486 70 499Q70 511 80 524Q90 537 102 537L116 537M-3 498Q-3 482-14 471.50Q-25 461-41 461Q-57 461-68 471.50Q-79 482-79 498Q-79 514-68 525.50Q-57 537-41 537Q-25 537-14 525.50Q-3 514-3 498Z"   vert-adv-y="1000"  />

      
      <glyph glyph-name="unia9" unicode="&#xa9;" d="M676 310Q676 173 582 79.50Q488-14 351-14Q213-14 120 79Q27 172 27 310Q27 448 120 541Q213 634 351 634Q488 634 582 540.50Q676 447 676 310M638 310Q638 430 554.50 513.50Q471 597 351 597Q230 597 147.50 514Q65 431 65 310Q65 189 147.50 106.50Q230 24 351 24Q472 24 555 106.50Q638 189 638 310M494 367L476 367Q470 409 438 436.50Q406 464 363 464Q304 464 268 412Q236 366 236 304Q236 239 267 200Q301 157 365 157Q428 157 486 207L496 190Q430 121 355 121Q274 121 224.50 171.50Q175 222 175 303Q175 381 224 435Q273 489 351 489Q368 489 400.50 480.50Q433 472 450 472Q469 472 473 487L490 487L494 367Z"  horiz-adv-x="748" vert-adv-y="1000"  />

      
      <glyph glyph-name="uniaa" unicode="&#xaa;" d="M265 783Q265 767 254 755.50Q243 744 227 744Q211 744 200 755.50Q189 767 189 783Q189 797 201 809Q213 821 227 821Q241 821 253 809Q265 797 265 783M116 781Q116 768 107 756Q98 744 85 744L77 744Q39 744 39 781Q39 797 50 808.50Q61 820 77 820Q93 820 104.50 808.50Q116 797 116 781Z"   vert-adv-y="1000"  />

      
      <glyph glyph-name="uniab" unicode="&#xab;" d="M201 330Q140 276 55 221L161 84L88 84L3 203Q97 268 149 330L201 330M320 331Q235 258 179 221L286 84L213 84L128 204Q204 254 268 331L320 331Z"  horiz-adv-x="382" vert-adv-y="1000"  />

      
      <glyph glyph-name="uniac" unicode="&#xac;" d="M621 271L621 0L570 0L570 219L-4 219L-4 271L621 271Z"  horiz-adv-x="675" vert-adv-y="1000"  />

      
      <glyph glyph-name="uniae" unicode="&#xae;" d="M26 306Q26 442 120 536Q214 630 350 630Q486 630 580.50 536Q675 442 675 306Q675 169 581 75Q487-19 350-19Q213-19 119.50 75Q26 169 26 306M64 305Q64 183 146 101Q228 19 350 19Q471 19 554 102Q637 185 637 306Q637 428 554 510Q471 592 349 592Q228 592 146 509Q64 426 64 305M346 159L346 142L195 142L195 159Q241 159 241 183L241 454Q241 477 230 480Q228 482 200 482L200 499L361 499Q488 499 488 411Q488 372 460.50 345.50Q433 319 394 317L506 172Q516 159 540 159L540 142L451 142L326 308L301 308L301 186Q301 159 346 159M426 406Q426 453 394 468Q372 479 320 479Q300 479 300 461L301 330Q359 332 383 342Q426 360 426 406Z"  horiz-adv-x="748" vert-adv-y="1000"  />

      
      <glyph glyph-name="unib0" unicode="&#xb0;" d="M105 502Q105 561 146 602Q187 643 246 643Q305 643 346 602Q387 561 387 502Q387 444 345.50 403Q304 362 246 362Q187 362 146 402.50Q105 443 105 502M143 502Q143 459 173 429.50Q203 400 246 400Q289 400 319 429.50Q349 459 349 502Q349 545 318.50 575Q288 605 245 605Q202 605 172.50 575Q143 545 143 502Z"  horiz-adv-x="222" vert-adv-y="1000"  />

      
      <glyph glyph-name="unib1" unicode="&#xb1;" d="M218 606L270 606L270 384L493 384L493 332L270 332L270 109L218 109L218 332L-5 332L-5 384L218 384L218 606M-5 52L493 52L493 0L-5 0L-5 52Z"  horiz-adv-x="520" vert-adv-y="1000"  />

      
      <glyph glyph-name="unib4" unicode="&#xb4;" d="M156 605L158 602L157 598Q140 575 78 518Q11 456-6 456Q-10 462-10 463Q-10 469 40 548Q45 557 70 607Q86 605 104 605Q128 605 152 607L156 605Z"   vert-adv-y="1000"  />

      
      <glyph glyph-name="unib6" unicode="&#xb6;" d="M539 652L505 652L505-167L447-167L447 652L303 652L303-167L245-167L245 319Q171 331 129.50 381.50Q88 432 88 507Q88 603 152 656Q211 706 309 706L539 706L539 652Z"  horiz-adv-x="667" vert-adv-y="1000"  />

      
      <glyph glyph-name="unib7" unicode="&#xb7;" d="M184 286Q184 264 170 249Q156 234 134 234Q113 234 98 249.50Q83 265 83 286Q83 307 97.50 322Q112 337 133 337Q155 337 169.50 322.50Q184 308 184 286Z"  horiz-adv-x="163" vert-adv-y="1000"  />

      
      <glyph glyph-name="uni2219" unicode="&#x2219;" d="M184 286Q184 264 170 249Q156 234 134 234Q113 234 98 249.50Q83 265 83 286Q83 307 97.50 322Q112 337 133 337Q155 337 169.50 322.50Q184 308 184 286Z"  horiz-adv-x="163" vert-adv-y="1000"  />

      
      <glyph glyph-name="unib8" unicode="&#xb8;" d="M-146-56Q-151-56-151-51Q-148-44-115-25Q-82-6-73-6Q-58-6-47-27Q-37-44-37-61Q-37-88-77-128Q-108-159-141-179Q-165-193-173-193Q-178-193-178-184Q-176-181-157-166Q-98-120-98-78Q-98-60-115-57Q-118-56-146-56Z"   vert-adv-y="1000"  />

      
      <glyph glyph-name="uniba" unicode="&#xba;" d="M20 779Q20 782 29 797Q68 863 116 863Q136 863 183 838Q230 813 243 813Q265 813 279 832Q297 857 306 864L310 864Q311 863 313 863Q316 860 316 855Q316 831 278.50 799.50Q241 768 217 768Q194 768 146 793.50Q98 819 87 819Q69 819 49 794.50Q29 770 23 770Q20 770 20 779Z"   vert-adv-y="1000"  />

      
      <glyph glyph-name="unibb" unicode="&#xbb;" d="M160 332L233 332L317 213Q217 139 173 86L122 86Q194 147 266 195L160 332M36 332L109 332L194 213Q137 175 53 86L2 86Q28 112 143 195L36 332Z"  horiz-adv-x="382" vert-adv-y="1000"  />

      
      <glyph glyph-name="unibf" unicode="&#xbf;" d="M231 483Q317 483 317 396Q317 350 252 293Q227 273 151 211Q108 175 87 161L47 122Q25 101 25 73Q25 41 53 23Q77 8 111 8Q162 8 217 65Q246 95 256 136Q259 146 274 214L277 216L280 216Q287 216 287 192Q287 109 241 53Q192-8 111-8Q68-8 36 24Q4 56 4 99Q4 166 79 235Q107 261 218 342Q293 397 293 425Q293 466 238 467Q220 467 173 448L171 451L178 473Q201 483 230 483L231 483M343 607Q343 572 307 572Q293 572 283 582.50Q273 593 273 607Q273 643 307 643Q343 643 343 607Z"  horiz-adv-x="382" vert-adv-y="1000"  />

      
      <glyph glyph-name="unic0" unicode="&#xc0;" d="M599 756Q599 756 577 768Q425 851 425 871Q425 875 436 875Q440 875 449 874Q458 873 462 873Q491 873 519 876Q557 834 609 765L609 761Q604 756 599 756M843 669Q843 620 736 341L742 340Q756 340 784.50 342Q813 344 827 344Q839 344 843 343Q837 318 819 317L729 313L679 180Q643 84 643 53Q643 33 657.50 20.50Q672 8 692 8Q763 8 887 90L886 80Q782 0 688 0Q580 0 580 70Q580 104 611 192L656 319L568 323L517 234Q486 181 460 149Q326-12 150-12Q70-12 21 17Q-40 53-40 127Q-40 197 34 257Q152 353 350 353Q463 353 551 346L659 561Q738 718 806 718Q843 718 843 669M797 698Q797 706 792 706Q786 706 778 698Q730 662 666 534Q645 491 574 345L663 342L797 698M329 346Q219 346 131 293Q29 231 29 127Q29 64 67 31Q105-2 169-2Q388-2 542 328Q359 346 328 346L329 346Z"  horiz-adv-x="905" vert-adv-y="1000"  />

      
      <glyph glyph-name="unic1" unicode="&#xc1;" d="M683 871L683 867Q539 756 504 756Q499 756 499 762Q506 773 539 815L587 876Q611 874 613 874Q624 874 646 875.50Q668 877 679 877Q683 877 683 871M843 669Q843 620 736 341L742 340Q756 340 784.50 342Q813 344 827 344Q839 344 843 343Q837 318 819 317L729 313L679 180Q643 84 643 53Q643 33 657.50 20.50Q672 8 692 8Q763 8 887 90L886 80Q782 0 688 0Q580 0 580 70Q580 104 611 192L656 319L568 323L517 234Q486 181 460 149Q326-12 150-12Q70-12 21 17Q-40 53-40 127Q-40 197 34 257Q152 353 350 353Q463 353 551 346L659 561Q738 718 806 718Q843 718 843 669M797 698Q797 706 792 706Q786 706 778 698Q730 662 666 534Q645 491 574 345L663 342L797 698M329 346Q219 346 131 293Q29 231 29 127Q29 64 67 31Q105-2 169-2Q388-2 542 328Q359 346 328 346L329 346Z"  horiz-adv-x="905" vert-adv-y="1000"  />

      
      <glyph glyph-name="unic2" unicode="&#xc2;" d="M602 876Q624 802 652 768L652 759L650 756L645 753Q632 753 596 789Q571 814 553 839Q487 770 452 755L449 755L447 761L447 764Q453 772 497 819Q505 828 535 875L601 875L602 876M844 670Q844 621 737 342L743 341Q757 341 785.50 343Q814 345 828 345Q840 345 844 344Q838 319 820 318L730 314L680 181Q644 85 644 54Q644 9 693 9Q764 9 888 91L887 81Q783 1 689 1Q581 1 581 71Q581 106 612 194L657 320L569 324L518 235Q487 182 461 150Q327-11 151-11Q71-11 22 18Q-39 54-39 128Q-39 198 35 258Q153 354 351 354Q464 354 552 347L660 562Q739 719 807 719Q844 719 844 670M798 699Q798 707 793 707Q787 707 779 699Q732 664 667 535Q642 486 575 346L664 343L798 699M330 347Q220 347 132 294Q30 232 30 128Q30 65 68 32Q106-1 170-1Q389-1 543 329Q360 347 329 347L330 347Z"  horiz-adv-x="905" vert-adv-y="1000"  />

      
      <glyph glyph-name="unic3" unicode="&#xc3;" d="M420 780Q423 784 427 794Q469 863 516 863Q536 863 583 838Q630 813 644 813Q668 813 684 835Q704 863 707 864L711 864Q716 864 716 855Q716 830 679 799Q642 768 617 768Q596 768 547 793.50Q498 819 488 819Q471 819 449 794.50Q427 770 423 770Q420 770 420 780M843 669Q843 620 736 341L742 340Q756 340 784.50 342Q813 344 827 344Q839 344 843 343Q837 318 819 317L729 313L679 180Q643 84 643 53Q643 33 657.50 20.50Q672 8 692 8Q763 8 887 90L886 80Q782 0 688 0Q580 0 580 70Q580 104 611 192L656 319L568 323L517 234Q486 181 460 149Q326-12 150-12Q70-12 21 17Q-40 53-40 127Q-40 197 34 257Q152 353 350 353Q463 353 551 346L659 561Q738 718 806 718Q843 718 843 669M797 698Q797 706 792 706Q786 706 778 698Q730 662 666 534Q645 491 574 345L663 342L797 698M329 346Q219 346 131 293Q29 231 29 127Q29 64 67 31Q105-2 169-2Q388-2 542 328Q359 346 328 346L329 346Z"  horiz-adv-x="905" vert-adv-y="1000"  />

      
      <glyph glyph-name="unic4" unicode="&#xc4;" d="M929 796L929 781Q929 769 916 760Q903 751 891 751Q877 751 865 763Q853 775 853 789Q853 803 865 815Q877 827 891 827Q903 827 916 817Q929 807 929 796M780 787Q780 773 768 761Q756 749 742 749Q726 749 715 760Q704 771 704 787Q704 803 715 814Q726 825 742 825Q756 825 768 813Q780 801 780 787M843 669Q843 620 736 341L742 340Q756 340 784.50 342Q813 344 827 344Q839 344 843 343Q837 318 819 317L729 313L679 180Q643 84 643 53Q643 33 657 20.50Q671 8 691 8Q763 8 887 90L886 80Q783 0 695 0Q580 0 580 70Q580 104 611 192L656 319L568 323Q555 299 518 234Q488 182 461 149Q329-12 150-12Q70-12 21 17Q-40 53-40 127Q-40 197 34 257Q152 353 350 353Q463 353 551 346L659 561Q738 718 806 718Q843 718 843 669M797 698Q797 706 792 706Q786 706 778 698Q730 662 666 534Q645 491 574 345L663 342L797 698M329 346Q219 346 131 293Q29 231 29 127Q29 64 67 31Q105-2 169-2Q388-2 542 328Q359 346 328 346L329 346Z"  horiz-adv-x="905" vert-adv-y="1000"  />

      
      <glyph glyph-name="unic5" unicode="&#xc5;" d="M903 821Q903 788 880.50 766Q858 744 825 744Q793 744 771 766.50Q749 789 749 821Q749 851 772 874Q795 897 825 897Q856 897 879.50 874.50Q903 852 903 821M876 821Q876 843 861.50 857Q847 871 825 871Q805 871 790 856Q775 841 775 821Q775 770 825 770Q848 770 862 784Q876 798 876 821M843 669Q843 620 736 341L742 340Q756 340 784.50 342Q813 344 827 344Q839 344 843 343Q837 318 819 317L729 313L679 180Q643 84 643 53Q643 33 657 20.50Q671 8 691 8Q763 8 887 90L886 80Q783 0 695 0Q580 0 580 70Q580 104 611 192L656 319L568 323Q555 299 518 234Q488 182 461 149Q329-12 150-12Q70-12 21 17Q-40 53-40 127Q-40 197 34 257Q152 353 350 353Q463 353 551 346L659 561Q738 718 806 718Q843 718 843 669M797 698Q797 706 792 706Q786 706 778 698Q730 662 666 534Q645 491 574 345L663 342L797 698M329 346Q219 346 131 293Q29 231 29 127Q29 64 67 31Q105-2 169-2Q388-2 542 328Q359 346 328 346L329 346Z"  horiz-adv-x="905" vert-adv-y="1000"  />

      
      <glyph glyph-name="unic6" unicode="&#xc6;" d="M715 671Q715 619 676 505Q654 441 616 335L722 369Q746 384 746 473Q746 576 781 644Q826 732 919 733Q957 733 985 706.50Q1013 680 1013 642Q1013 584 966 530Q935 495 870 449Q864 445 860 445L858 449Q862 456 892 485Q989 581 989 655Q989 714 939 714Q896 714 849 627Q825 582 810 529Q806 515 782 427Q773 394 761.50 379.50Q750 365 720 350Q559 270 559 128Q559 66 602 33Q641 3 704 3Q811 3 915 84Q1028 172 1022 275Q1024 277 1027 277L1030 274Q1030 278 1037 244Q1041 225 1041 214Q1041 110 921 45Q820-10 708-10Q621-10 565 26Q499 68 499 150Q499 213 536 318L449 321Q373 148 334 93Q247-27 124-27Q56-27 11 7Q-39 44-39 110Q-39 230 110 297Q237 354 365 350L431 348Q481 464 536 562Q627 723 677 723Q715 723 715 671M667 704Q667 708 662 708Q618 692 544 545Q495 447 457 346L544 342Q667 683 667 704M33 113Q33 60 64.50 26Q96-8 149-8Q253-8 328 112Q344 138 365 183Q367 189 422 322Q346 331 319 331Q212 331 129 277Q33 215 33 113Z"  horiz-adv-x="1087" vert-adv-y="1000"  />

      
      <glyph glyph-name="unic7" unicode="&#xc7;" d="M279-35Q245-35 210-29Q220-46 220-64Q220-91 165.50-142Q111-193 84-193Q78-193 78-185L80-180Q159-123 159-78Q159-60 141-57Q139-56 110-56L108-56Q107-55 106-55L106-47Q138-27 160-16Q80 12 34 75Q-12 138-12 222Q-12 332 56 451Q119 562 212 634Q318 716 423 716Q496 716 537 669Q578 622 578 548Q578 415 477 295Q371 170 241 170Q191 170 159 198Q127 226 127 275Q127 363 218 447Q301 524 393 541L400 540Q400 538 402 532Q336 493 269 449Q140 365 139 269Q138 188 224 188Q335 188 448 323Q557 454 557 568Q557 629 524.50 665Q492 701 432 701Q324 701 227 592Q155 512 104 392Q51 266 51 164Q51 72 114 26Q170-15 265-15Q403-15 579 86L579 72Q445-35 279-35Z"  horiz-adv-x="583" vert-adv-y="1000"  />

      
      <glyph glyph-name="unic8" unicode="&#xc8;" d="M458 756Q439 768 435 768Q284 855 284 871Q284 875 295 875Q299 875 308 874Q317 873 321 873Q328 873 378 875Q415 827 437 804Q445 795 466 771Q468 765 468 763Q468 756 458 756M531 635Q531 584 482 520Q433 456 384 444L380 444Q379 444 379 446Q380 449 380 450Q426 481 467 540Q513 605 513 654Q513 676 499 690Q485 704 463 704Q389 704 335 546Q324 513 291 416Q281 386 270.50 374.50Q260 363 231 349Q64 268 64 133Q64 70 106 35Q148 0 212 0Q307 0 417 73Q539 154 539 242L539 248Q538 252 538 254L541 258L546 256Q555 229 555 217Q555 112 438 44Q340-13 225-13Q134-13 73 24Q-1 68-1 153Q-1 282 148 341Q173 346 232 367Q257 379 261 422Q262 441 266 491Q288 722 436 722Q477 722 504 698.50Q531 675 531 635Z"  horiz-adv-x="583" vert-adv-y="1000"  />

      
      <glyph glyph-name="unic9" unicode="&#xc9;" d="M543 869Q519 845 455 803Q384 756 363 756Q359 756 359 766Q363 774 445 875Q451 874 472 874Q483 874 505 875.50Q527 877 538 877Q543 877 543 869M531 635Q531 584 482 520Q433 456 384 444L380 444Q379 444 379 446Q380 449 380 450Q426 481 467 540Q513 605 513 654Q513 676 499 690Q485 704 463 704Q389 704 335 546Q324 513 291 416Q281 386 270.50 374.50Q260 363 231 349Q64 268 64 133Q64 70 106 35Q148 0 212 0Q307 0 417 73Q539 154 539 242L539 248Q538 252 538 254L541 258L546 256Q555 229 555 217Q555 112 438 44Q340-13 225-13Q134-13 73 24Q-1 68-1 153Q-1 282 148 341Q173 346 232 367Q257 379 261 422Q262 441 266 491Q288 722 436 722Q477 722 504 698.50Q531 675 531 635Z"  horiz-adv-x="583" vert-adv-y="1000"  />

      
      <glyph glyph-name="unica" unicode="&#xca;" d="M461 874Q481 814 498 787Q506 775 512 761L509 756L503 753Q467 765 412 838Q340 766 312 755L309 755Q304 755 304 761Q305 762 305 764Q340 804 394 875L460 875L461 874M532 634Q532 584 482.50 519Q433 454 385 443L381 443Q380 443 380 445Q381 448 381 449Q427 480 468 539Q514 604 514 653Q514 675 500 689Q486 703 464 703Q391 703 336 545Q316 487 292 415Q282 385 272 373.50Q262 362 232 348Q65 267 65 132Q65 69 108 33Q148-1 213-1Q308-1 418 72Q540 153 540 241L540 247Q539 251 539 253L542 257L547 255Q556 228 556 216Q556 111 439 43Q341-14 226-14Q135-14 74 23Q0 67 0 152Q0 281 149 340Q174 345 233 366Q258 378 262 421Q263 440 267 490Q289 721 437 721Q478 721 505 697.50Q532 674 532 634Z"  horiz-adv-x="583" vert-adv-y="1000"  />

      
      <glyph glyph-name="unicb" unicode="&#xcb;" d="M524 791L524 776Q524 763 512 753.50Q500 744 486 744Q470 744 459 755.50Q448 767 448 783Q448 799 459 810Q470 821 486 821Q499 821 511.50 812Q524 803 524 791M376 781Q376 766 364 755Q352 744 337 744Q322 744 310 755Q298 766 298 781Q298 797 309.50 808.50Q321 820 337 820Q352 820 364 808Q376 796 376 781M531 635Q531 584 482 520Q433 456 384 444L380 444Q379 444 379 446Q380 449 380 450Q426 481 467 540Q513 605 513 654Q513 676 499 690Q485 704 463 704Q389 704 335 546Q324 513 291 416Q281 386 270.50 374.50Q260 363 231 349Q64 268 64 133Q64 70 106 35Q148 0 212 0Q307 0 417 73Q539 154 539 242L539 248Q538 252 538 254L541 258L546 256Q555 229 555 217Q555 112 438 44Q340-13 225-13Q134-13 73 24Q-1 68-1 153Q-1 282 148 341Q173 346 232 367Q257 379 261 422Q262 441 266 491Q288 722 436 722Q477 722 504 698.50Q531 675 531 635Z"  horiz-adv-x="583" vert-adv-y="1000"  />

      
      <glyph glyph-name="unicc" unicode="&#xcc;" d="M476 756L474 756Q299 850 299 871Q299 875 310 875Q314 875 323 874Q332 873 336 873Q365 873 393 876Q431 834 483 765L483 761Q478 756 476 756M597 648Q542 648 432.50 659Q323 670 268 670Q205 670 171 659Q127 645 95 602L30 515Q29 514 26 514Q26 516 22 517L21 520Q30 553 77 606Q171 712 327 712Q359 712 503 682Q555 671 627 654L631 649L631 647Q631 643 617 621Q595 579 577 504L547 381Q542 361 536 342Q507 250 467 184L604 126Q605 123 605 110L604 108Q535 139 459 171Q388 79 322 38Q242-12 139-12Q73-12 30 19Q-19 54-19 117Q-19 184 43 219Q94 248 167 248Q253 248 405 204Q434 263 466 357Q504 466 525 512Q561 590 619 648L597 648M204 225Q126 225 71 199Q-2 165-2 96Q-2 45 44 18Q82-5 136-5Q303-5 402 191L303 213Q249 225 203 225L204 225Z"  horiz-adv-x="624" vert-adv-y="1000"  />

      
      <glyph glyph-name="unicd" unicode="&#xcd;" d="M558 869L557 867Q413 756 378 756Q373 756 373 762Q380 773 413 815L461 876Q485 874 487 874Q498 874 520 875.50Q542 877 553 877Q558 877 558 869M597 648Q542 648 432.50 659Q323 670 268 670Q205 670 171 659Q127 645 95 602L30 515Q29 514 26 514Q26 516 22 517L21 520Q30 553 77 606Q171 712 327 712Q359 712 503 682Q555 671 627 654L631 649L631 647Q631 643 617 621Q595 579 577 504L547 381Q542 361 536 342Q507 250 467 184L604 126Q605 123 605 110L604 108Q535 139 459 171Q388 79 322 38Q242-12 139-12Q73-12 30 19Q-19 54-19 117Q-19 184 43 219Q94 248 167 248Q253 248 405 204Q434 263 466 357Q504 466 525 512Q561 590 619 648L597 648M204 225Q126 225 71 199Q-2 165-2 96Q-2 45 44 18Q82-5 136-5Q303-5 402 191L303 213Q249 225 203 225L204 225Z"  horiz-adv-x="624" vert-adv-y="1000"  />

      
      <glyph glyph-name="unice" unicode="&#xce;" d="M475 876Q496 804 526 768L527 761Q525 756 520 754Q493 756 427 839Q349 757 323 755L320 761L322 764Q322 767 371 820Q381 831 409 875L475 875L475 876M597 649Q542 649 432.50 660Q323 671 268 671Q205 671 171 660Q127 646 95 603L30 516Q29 515 26 515Q26 517 22 518L21 521Q31 555 77 607Q171 713 327 713Q359 713 503 683Q555 672 627 655L631 650L631 648Q631 644 617 622Q599 587 580 510Q549 383 536 343Q507 252 467 185L604 127Q605 124 605 111L604 109Q535 140 459 172Q388 80 322 39Q242-11 139-11Q73-11 30 20Q-19 55-19 118Q-19 185 43 220Q94 249 167 249Q253 249 405 205Q434 264 466 358Q504 467 525 513Q561 591 619 649L597 649M204 226Q126 226 71 200Q-2 166-2 97Q-2 46 44 19Q82-4 136-4Q303-4 402 192L303 214Q249 226 203 226L204 226Z"  horiz-adv-x="624" vert-adv-y="1000"  />

      
      <glyph glyph-name="unicf" unicode="&#xcf;" d="M540 783Q540 767 528.50 755.50Q517 744 501 744Q464 744 464 783Q464 799 474.50 810Q485 821 501 821Q540 821 540 783M390 781Q390 744 352 744Q336 744 325 754.50Q314 765 314 781Q314 797 325 808.50Q336 820 352 820Q368 820 379 808.50Q390 797 390 781M597 648Q542 648 432.50 659Q323 670 268 670Q205 670 171 659Q127 645 95 602L30 515Q29 514 26 514Q26 516 22 517L21 520Q30 553 77 606Q171 712 327 712Q359 712 503 682Q555 671 627 654L631 649L631 647Q631 643 617 621Q595 579 577 504L547 381Q542 361 536 342Q507 250 467 184L604 126Q605 123 605 110L604 108Q535 139 459 171Q388 79 322 38Q242-12 139-12Q73-12 30 19Q-19 54-19 117Q-19 184 43 219Q94 248 167 248Q253 248 405 204Q434 263 466 357Q504 466 525 512Q561 590 619 648L597 648M204 225Q126 225 71 199Q-2 165-2 96Q-2 45 44 18Q82-5 136-5Q303-5 402 191L303 213Q249 225 203 225L204 225Z"  horiz-adv-x="624" vert-adv-y="1000"  />

      
      <glyph glyph-name="unid1" unicode="&#xd1;" d="M431 775Q434 801 467.50 832Q501 863 528 863Q549 863 595 838Q641 813 654 813Q676 813 691 832Q714 861 718 864L722 864Q723 863 725 863Q728 860 728 855Q728 831 690.50 799.50Q653 768 629 768Q607 768 558 793.50Q509 819 499 819Q479 819 467 803L460 793Q452 783 445 773Q438 771 434 770L431 775M633 117Q633 13 725 12Q790 11 912 98L912 84Q808-1 732-1Q656-1 617 54Q583 102 583 181Q583 318 678 465Q733 550 873 701Q787 683 682 627Q581 574 512 513Q512 382 456 238Q393 75 299 10Q279-4 262-4Q231-4 231 54Q231 156 310 287Q373 391 464 484Q473 558 473 583Q473 694 374 694Q283 694 185 610Q106 542 49 446Q-17 334-17 239Q-17 201 7 147L3 144Q-35 212-35 285Q-35 439 94 573.50Q223 708 376 708Q445 708 482 650Q515 599 512 528Q729 701 893 713Q808 607 725 429Q633 232 633 117M245 31Q245 8 260 8Q286 8 354 162Q428 330 456 461Q328 323 274 148Q246 58 246 31L245 31Z"  horiz-adv-x="925" vert-adv-y="1000"  />

      
      <glyph glyph-name="unid2" unicode="&#xd2;" d="M475 756L473 756Q298 850 298 871Q298 875 309 875Q313 875 322 874Q331 873 335 873Q364 873 392 876Q430 834 482 765L482 761Q477 756 475 756M412 719Q497 719 542 635Q579 566 579 474Q579 368 521 254Q466 144 381 73Q285-8 182-8Q80-8 26 75Q-20 145-20 252Q-20 417 122 561Q230 670 254 670Q256 669 255 666Q249 657 203 611Q134 542 87 414Q42 292 42 188Q42-1 179-1Q283-1 369 111Q432 192 475 317Q520 447 520 554Q520 708 402 708Q269 708 181 452Q179 448 178 448Q175 448 172 454Q193 564 246 633Q311 719 411 719L412 719Z"  horiz-adv-x="624" vert-adv-y="1000"  />

      
      <glyph glyph-name="unid3" unicode="&#xd3;" d="M557 869L556 867Q412 756 377 756Q372 756 372 762Q379 773 412 815L460 876Q484 874 486 874Q497 874 519 875.50Q541 877 552 877Q557 877 557 869M412 719Q497 719 542 635Q579 566 579 474Q579 368 521 254Q466 144 381 73Q285-8 182-8Q80-8 26 75Q-20 145-20 252Q-20 417 122 561Q230 670 254 670Q256 669 255 666Q249 657 203 611Q134 542 87 414Q42 292 42 188Q42-1 179-1Q283-1 369 111Q432 192 475 317Q520 447 520 554Q520 708 402 708Q269 708 181 452Q179 448 178 448Q175 448 172 454Q193 564 246 633Q311 719 411 719L412 719Z"  horiz-adv-x="624" vert-adv-y="1000"  />

      
      <glyph glyph-name="unid4" unicode="&#xd4;" d="M474 876Q495 804 525 768L526 761Q524 756 519 754Q492 756 426 839Q348 757 322 755L319 761L321 764Q321 767 370 820Q380 831 408 875L474 875L474 876M412 720Q497 720 542 636Q579 567 579 475Q579 369 521 255Q466 145 381 74Q285-7 182-7Q80-7 26 76Q-20 146-20 253Q-20 418 122 562Q230 671 254 671Q256 671 256 669L255 667Q246 654 203 612Q134 544 87 415Q42 293 42 189Q42 0 179 0Q283 0 369 112Q432 193 475 318Q520 448 520 555Q520 709 402 709Q269 709 181 453Q180 449 178 449Q175 449 172 455Q193 565 246 634Q311 720 411 720L412 720Z"  horiz-adv-x="624" vert-adv-y="1000"  />

      
      <glyph glyph-name="unid5" unicode="&#xd5;" d="M293 780Q296 784 300 794Q342 863 389 863Q409 863 456 838Q503 813 517 813Q541 813 557 835Q577 863 580 864L584 864Q585 863 587 863L589 860L589 857Q589 831 552.50 799.50Q516 768 490 768Q469 768 420 793.50Q371 819 361 819Q328 819 307 773Q303 770 296 770Q293 770 293 780M412 719Q497 719 542 635Q579 566 579 474Q579 368 521 254Q466 144 381 73Q285-8 182-8Q80-8 26 75Q-20 145-20 252Q-20 417 122 561Q230 670 254 670Q256 669 255 666Q249 657 203 611Q134 542 87 414Q42 292 42 188Q42-1 179-1Q283-1 369 111Q432 192 475 317Q520 447 520 554Q520 708 402 708Q269 708 181 452Q179 448 178 448Q175 448 172 454Q193 564 246 633Q311 719 411 719L412 719Z"  horiz-adv-x="624" vert-adv-y="1000"  />

      
      <glyph glyph-name="unid6" unicode="&#xd6;" d="M412 719Q497 719 542 635Q579 566 579 474Q579 368 521 254Q466 144 381 73Q285-8 182-8Q80-8 26 75Q-20 145-20 252Q-20 417 122 561Q230 670 254 670Q256 669 255 666Q249 657 203 611Q134 542 87 414Q42 292 42 188Q42-1 179-1Q283-1 369 111Q432 192 475 317Q520 447 520 554Q520 708 402 708Q269 708 181 452Q179 448 178 448Q175 448 172 454Q193 564 246 633Q311 719 411 719L412 719M519 784Q519 768 507.50 756.50Q496 745 480 745Q464 745 453 756.50Q442 768 442 784Q442 798 454 810Q466 822 480 822Q496 822 507.50 811Q519 800 519 784M371 784Q371 772 361 759Q351 746 339 746L324 746Q312 746 302.50 759Q293 772 293 784Q293 822 339 822Q351 822 361 809Q371 796 371 784Z"  horiz-adv-x="624" vert-adv-y="1000"  />

      
      <glyph glyph-name="unid8" unicode="&#xd8;" d="M27 78Q-21 152-21 246Q-21 441 163 604Q238 670 253 670Q255 669 255 667Q230 617 166 515Q107 421 80 360Q41 272 41 191Q41 162 53 106L507 641Q471 702 414 702Q353 702 300 647Q255 601 230 536Q225 522 218 486Q212 454 204 437L201 435L198 435Q194 435 194 442Q194 477 206 521Q229 605 280 656Q338 715 419 715Q469 715 525 662L567 712L586 697L539 640Q580 543 580 479Q580 369 526 260Q472 151 385 79Q280-8 193-8Q117-8 45 61L-7-1L-26 14L28 78L27 78M523 550Q523 580 515 615L61 80Q97 2 191 2Q293 2 379 122Q438 204 480.50 328.50Q523 453 523 550Z"  horiz-adv-x="624" vert-adv-y="1000"  />

      
      <glyph glyph-name="unid9" unicode="&#xd9;" d="M592 759L587 756L583 756Q408 850 408 871Q408 875 419 875Q424 875 432.50 874Q441 873 446 873Q475 873 503 876Q505 873 551 816L593 764L593 761L592 759M862 705Q855 671 803 552L696 309Q622 141 622 67Q622 8 685 8Q744 8 850 67L851 54Q769-6 688-6Q638-6 606 20Q571 48 571 96Q571 163 639 327Q661 379 740 561Q666 404 545 230Q380-8 289-8Q263-8 248 14Q234 33 234 60Q234 131 319 297Q351 359 442 535Q484 617 484 649Q484 689 429 689Q291 689 146 562Q-20 417-20 255Q-20 177 39 109L39 104Q39 100 35 100Q32 100 29 103Q-2 128-19 181Q-34 226-34 273Q-34 441 116 573Q261 700 431 700Q472 700 498 682Q528 662 528 623Q528 566 438 386Q406 323 315 143Q272 57 272 24Q272 1 292 1Q313 1 366 48Q477 146 606 349Q711 514 792 690Q817 698 860 708L862 705Z"  horiz-adv-x="865" vert-adv-y="1000"  />

      
      <glyph glyph-name="unida" unicode="&#xda;" d="M668 871Q660 853 583.50 804.50Q507 756 487 756Q485 756 483 761Q483 764 523 815Q550 850 570 876Q594 874 597 874Q608 874 630 875.50Q652 877 663 877Q668 877 668 871M862 705Q855 671 803 552L696 309Q622 141 622 67Q622 8 685 8Q744 8 850 67L851 54Q769-6 688-6Q638-6 606 20Q571 48 571 96Q571 163 639 327Q661 379 740 561Q666 404 545 230Q380-8 289-8Q263-8 248 14Q234 33 234 60Q234 131 319 297Q351 359 442 535Q484 617 484 649Q484 689 429 689Q291 689 146 562Q-20 417-20 255Q-20 177 39 109L39 104Q39 100 35 100Q32 100 29 103Q-2 128-19 181Q-34 226-34 273Q-34 441 116 573Q261 700 431 700Q472 700 498 682Q528 662 528 623Q528 566 438 386Q406 323 315 143Q272 57 272 24Q272 1 292 1Q313 1 366 48Q477 146 606 349Q711 514 792 690Q817 698 860 708L862 705Z"  horiz-adv-x="865" vert-adv-y="1000"  />

      
      <glyph glyph-name="unidb" unicode="&#xdb;" d="M585 876Q597 832 623 787Q632 772 636 765L636 759L634 756L629 754Q599 764 537 838Q471 769 437 755L434 755Q429 755 429 760Q429 763 481 820Q496 837 518 875L585 875L585 876M862 706Q851 652 787 509Q742 410 696 310Q622 140 622 68Q622 9 685 9Q747 9 850 68L851 55Q769-5 688-5Q638-5 606 21Q571 49 571 97Q571 164 639 328Q661 380 740 562Q666 405 545 231Q380-7 289-7Q263-7 248 15Q234 34 234 61Q234 132 319 298Q351 360 442 536Q484 618 484 650Q484 690 429 690Q291 690 146 563Q-20 418-20 256Q-20 178 39 110L39 105Q39 101 35 101Q32 101 29 104Q-2 129-19 182Q-34 227-34 274Q-34 442 116 574Q261 701 431 701Q472 701 498 683Q528 663 528 624Q528 567 438 387Q406 324 315 144Q272 58 272 25Q272 2 292 2Q313 2 366 49Q477 147 606 350Q711 515 792 691Q817 699 860 709L862 706Z"  horiz-adv-x="865" vert-adv-y="1000"  />

      
      <glyph glyph-name="unidc" unicode="&#xdc;" d="M859 705Q851 666 802 554L695 309Q620 137 620 67Q620 8 683 8Q743 8 849 67L850 54Q768-6 687-6Q638-6 604 21Q570 48 569 96Q568 153 625 289L739 561Q665 404 544 230Q379-8 288-8Q263-8 248 13Q233 34 233 60Q233 131 318 298Q350 360 441 537Q483 620 483 649Q483 689 426 689Q285 689 142.50 563Q0 437-18 297Q-21 274-21 255Q-21 177 38 109L38 104Q38 100 34 100Q8 100-15 172Q-35 234-35 269Q-35 441 113 573Q256 700 430 700Q470 700 497 683Q528 663 528 625Q528 564 438 388L313 144Q271 61 271 24Q271 1 291 1Q312 1 364 47Q479 149 605 348Q712 517 791 690Q816 698 859 708L859 705M799 792L799 777Q799 768 788 757.50Q777 747 768 747L754 747Q742 747 732.50 760Q723 773 723 785Q723 823 762 823Q774 823 786.50 813.50Q799 804 799 792M651 785Q651 771 641.50 759Q632 747 619 747L605 747Q593 747 583.50 760Q574 773 574 785Q574 800 585.50 811.50Q597 823 612 823Q651 823 651 785Z"  horiz-adv-x="865" vert-adv-y="1000"  />

      
      <glyph glyph-name="unidf" unicode="&#xdf;" d="M448 643Q448 591 387 517Q348 470 274 404Q213 350 213 347Q214 344 216 342Q244 332 347 326Q383 319 411 287Q439 255 439 218Q439 150 384 87Q466 72 511 73L510 63Q513 63 478 61Q465 60 375 77Q272-8 132-8Q98-8 74-4Q16-161-11-162L-12-158Q-10-137-2-104L25 10Q-22 36-22 66Q-22 105 52 119Q139 555 291 670Q341 708 381 708Q448 708 448 643M375 210Q375 332 232 332Q202 332 202 349Q202 350 300.50 490Q399 630 399 671Q399 697 369 697Q302 697 234 538Q195 448 162 320Q149 268 112 124Q226 124 335 100Q375 158 375 210M141 1Q253 1 327 87Q193 116 136 114L109 113Q99 70 81 9Q124 2 141 2L141 1M50 109Q-2 94-2 65Q-2 43 28 28L49 109L50 109Z"  horiz-adv-x="544" vert-adv-y="1000"  />

      
      <glyph glyph-name="unie0" unicode="&#xe0;" d="M301 471L303 464L300 459L297 457L295 457Q279 457 163 569Q156 576 136 595Q135 596 135 601Q136 603 139 606Q146 605 169 605Q175 605 223 607Q263 522 301 471M398 387Q398 386 397 384Q366 309 327 206Q272 61 272 39Q272 8 318 8Q388 8 484 68L484 56Q423 24 407 17Q359-4 324-4Q291-4 263 10Q230 26 224 55Q146-5 66-5Q-24-5-24 82Q-24 185 57 286Q143 392 243 392Q279 392 330 359Q389 392 393 392Q398 392 398 387M313 345L289 366Q252 383 230 383Q165 383 98 254Q37 136 37 64Q37 7 95 7Q147 7 224 74Q227 115 262 205Q281 255 315 335L313 345Z"  horiz-adv-x="483" vert-adv-y="1000"  />

      
      <glyph glyph-name="unie1" unicode="&#xe1;" d="M365 605L367 602Q367 586 296 526Q234 473 207 457L203 456Q201 459 198 463Q203 481 251 548Q258 557 278 607Q294 605 312 605Q336 605 360 607L365 605M398 387Q398 386 397 384Q366 309 327 206Q272 61 272 39Q272 8 318 8Q388 8 484 68L484 56Q423 24 407 17Q359-4 324-4Q291-4 263 10Q230 26 224 55Q146-5 66-5Q-24-5-24 82Q-24 185 57 286Q143 392 243 392Q279 392 330 359Q389 392 393 392Q398 392 398 387M313 345L289 366Q252 383 230 383Q165 383 98 254Q37 136 37 64Q37 7 95 7Q147 7 224 74Q227 115 262 205Q281 255 315 335L313 345Z"  horiz-adv-x="483" vert-adv-y="1000"  />

      
      <glyph glyph-name="unie2" unicode="&#xe2;" d="M347 471L347 467Q344 462 340 462Q323 462 289 501Q255 540 250 559Q163 462 149 462Q145 462 145 470L147 478Q199 533 236 604L302 604Q304 576 313 538Q317 523 328 503Q346 473 347 471M398 387Q398 386 397 384Q366 309 327 206Q272 61 272 39Q272 8 318 8Q388 8 484 68L484 56Q423 24 407 17Q359-4 324-4Q291-4 263 10Q230 26 224 55Q146-5 66-5Q-24-5-24 82Q-24 185 57 286Q143 392 243 392Q279 392 330 359Q389 392 393 392Q398 392 398 387M313 345L289 366Q252 383 230 383Q165 383 98 254Q37 136 37 64Q37 7 95 7Q147 7 224 74Q227 115 262 205Q281 255 315 335L313 345Z"  horiz-adv-x="483" vert-adv-y="1000"  />

      
      <glyph glyph-name="unie3" unicode="&#xe3;" d="M109 491Q109 518 145.50 548.50Q182 579 210 579Q229 579 274 554Q319 529 330 529Q352 529 368 544Q379 557 393 579L396 581L400 581L406 577L407 573Q395 541 367 514Q335 483 305 483Q285 483 237 509Q189 535 176 535Q158 535 117 485Q109 485 109 491M398 387Q398 386 397 384Q366 309 327 206Q272 61 272 39Q272 8 318 8Q388 8 484 68L484 56Q423 24 407 17Q359-4 324-4Q291-4 263 10Q230 26 224 55Q146-5 66-5Q-24-5-24 82Q-24 185 57 286Q143 392 243 392Q279 392 330 359Q389 392 393 392Q398 392 398 387M313 345L289 366Q252 383 230 383Q165 383 98 254Q37 136 37 64Q37 7 95 7Q147 7 224 74Q227 115 262 205Q281 255 315 335L313 345Z"  horiz-adv-x="483" vert-adv-y="1000"  />

      
      <glyph glyph-name="unie4" unicode="&#xe4;" d="M387 500Q387 488 377 475Q367 462 356 462L342 462Q329 462 320 474.50Q311 487 311 500Q311 538 356 538Q368 538 377.50 525.50Q387 513 387 500M206 537Q218 537 227.50 524.50Q237 512 237 499Q237 486 228 474Q219 462 206 462L192 462Q179 462 170 474Q161 486 161 499Q161 512 170 524.50Q179 537 192 537L206 537M398 387Q398 386 397 384Q366 309 327 206Q272 61 272 39Q272 8 318 8Q388 8 484 68L484 56Q423 24 407 17Q359-4 324-4Q291-4 263 10Q230 26 224 55Q146-5 66-5Q-24-5-24 82Q-24 185 57 286Q143 392 243 392Q279 392 330 359Q389 392 393 392Q398 392 398 387M313 345L289 366Q252 383 230 383Q165 383 98 254Q37 136 37 64Q37 7 95 7Q147 7 224 74Q227 115 262 205Q281 255 315 335L313 345Z"  horiz-adv-x="483" vert-adv-y="1000"  />

      
      <glyph glyph-name="unie5" unicode="&#xe5;" d="M359 532Q359 501 336 478Q313 455 282 455Q251 455 228 478Q205 501 205 532Q205 563 228 585.50Q251 608 282 608Q313 608 336 585.50Q359 563 359 532M332 531Q332 552 317.50 567.50Q303 583 282 583Q260 583 245.50 568Q231 553 231 531Q231 510 246 495Q261 480 282 480Q304 480 318 494.50Q332 509 332 531M398 387Q398 386 397 384Q366 309 327 206Q272 61 272 39Q272 8 318 8Q388 8 484 68L484 56Q423 24 407 17Q359-4 324-4Q291-4 263 10Q230 26 224 55Q146-5 66-5Q-24-5-24 82Q-24 185 57 286Q143 392 243 392Q279 392 330 359Q389 392 393 392Q398 392 398 387M313 345L289 366Q252 383 230 383Q165 383 98 254Q37 136 37 64Q37 7 95 7Q147 7 224 74Q227 115 262 205Q281 255 315 335L313 345Z"  horiz-adv-x="483" vert-adv-y="1000"  />

      
      <glyph glyph-name="unie6" unicode="&#xe6;" d="M373 388L379 388Q380 387 381 387L383 383L383 378Q377 362 366 331Q420 390 463 390Q513 390 513 330Q513 257 432 191Q372 143 284 109Q277 84 277 63Q277 2 364 2Q413 2 479 26Q549 51 581 83L581 67Q543 34 475 11Q411-10 357-10Q304-10 276 0Q236 14 220 55Q130-12 65-12Q23-12-1.50 13.50Q-26 39-26 81Q-26 180 54 283Q140 391 236 391Q268 391 311 365L315 373Q336 376 373 388M230 382Q158 382 93 253Q35 138 35 58Q35-1 88-1Q144-1 217 72Q219 122 252 205L304 338Q272 382 230 382M478 353Q478 379 456 379Q409 379 352 272Q312 197 289 120Q478 230 478 352L478 353Z"  horiz-adv-x="583" vert-adv-y="1000"  />

      
      <glyph glyph-name="unie7" unicode="&#xe7;" d="M11-56Q6-56 6-51Q7-50 7-48Q67-6 83-6Q97-6 108.50-26Q120-46 120-61Q120-92 67.50-142.50Q15-193-16-193Q-21-193-21-185L-19-180Q15-154 32-136Q59-106 59-78Q59-60 42-57Q40-56 11-56M114-7Q-4-7-4 88Q-4 179 76 281Q161 388 249 388Q275 388 290 372Q305 356 305 330Q305 288 266 232Q225 172 185 172L182 172L175 175L169 183L168 190Q176 223 237 265Q293 303 293 344Q293 378 249 378Q175 378 115 265Q63 167 63 84Q63 4 140 4Q189 4 254 30Q312 53 358 86L358 70Q273 30 240 18Q168-7 114-7Z"  horiz-adv-x="342" vert-adv-y="1000"  />

      
      <glyph glyph-name="unie8" unicode="&#xe8;" d="M141 607Q180 523 218 471L220 464L217 459L214 457L211 457Q196 457 124 522.50Q52 588 52 602Q52 605 55 606Q62 605 86 605Q95 605 113 606Q131 607 140 607L141 607M46 88Q46 5 122 4Q169 3 222 27Q272 49 307 84L307 68Q209-6 119-6Q53-6 22 15Q-16 41-16 104Q-17 258 105 353Q153 390 176 390Q200 390 214 371.50Q228 353 228 328Q228 231 46 108L46 88M206 365Q200 370 193 371Q134 371 87 272Q51 196 45 121Q99 158 150 223Q209 299 209 352Q209 356 206 365Z"  horiz-adv-x="301" vert-adv-y="1000"  />

      
      <glyph glyph-name="unie9" unicode="&#xe9;" d="M282 605L284 602Q284 586 213 526Q151 473 124 457L120 457L117 459L115 463Q121 482 166 548Q173 559 195 607Q211 605 229 605Q253 605 277 607L282 605M45 88Q45 5 121 4Q168 3 221 27Q271 49 306 84L306 68Q208-6 118-6Q52-6 21 15Q-17 41-17 104Q-18 257 104 353Q151 390 175 390Q199 390 213 371.50Q227 353 227 328Q227 231 45 108L45 88M205 365Q199 370 192 371Q133 371 86 272Q50 196 44 121Q98 158 149 223Q208 299 208 352Q208 356 205 365Z"  horiz-adv-x="301" vert-adv-y="1000"  />

      
      <glyph glyph-name="uniea" unicode="&#xea;" d="M264 471L264 467Q261 462 256 462Q240 462 206 502Q177 536 166 559Q85 462 66 462Q62 462 62 470L65 477Q112 527 153 604L219 604Q222 579 230 538Q233 522 245 503Q261 478 264 471M45 88Q45 5 121 4Q168 3 221 27Q271 49 306 84L306 68Q208-6 118-6Q52-6 21 15Q-17 41-17 104Q-18 257 104 353Q151 390 175 390Q199 390 213 371.50Q227 353 227 328Q227 231 45 108L45 88M205 365Q199 370 192 371Q133 371 86 272Q50 196 44 121Q98 158 149 223Q208 299 208 352Q208 356 205 365Z"  horiz-adv-x="301" vert-adv-y="1000"  />

      
      <glyph glyph-name="unieb" unicode="&#xeb;" d="M242 537Q255 537 264 524.50Q273 512 273 499Q273 486 263.50 474Q254 462 242 462L227 462Q214 462 205 474Q196 486 196 499Q196 512 205.50 524.50Q215 537 227 537L242 537M123 498Q123 482 112 471.50Q101 461 85 461Q47 461 47 498Q47 514 58 525.50Q69 537 85 537Q101 537 112 525.50Q123 514 123 498M45 88Q45 5 121 4Q168 3 221 27Q271 49 306 84L306 68Q208-6 118-6Q52-6 21 15Q-17 41-17 104Q-18 257 104 353Q151 390 175 390Q199 390 213 371.50Q227 353 227 328Q227 231 45 108L45 88M205 365Q199 370 192 371Q133 371 86 272Q50 196 44 121Q98 158 149 223Q208 299 208 352Q208 356 205 365Z"  horiz-adv-x="301" vert-adv-y="1000"  />

      
      <glyph glyph-name="uniec" unicode="&#xec;" d="M183 471L185 464L182 459L179 457L176 457Q155 457 44 569Q40 573 26 586L17 594Q16 596 16 601Q17 603 20 606Q27 605 51 605Q57 605 105 607Q137 533 183 471M140 388Q142 389 149 389Q153 389 153 383Q153 338 94 215Q35 92 35 44Q35 5 81 5Q131 5 228 73L228 60Q146-7 78-7Q40-7 14 13Q-12 33-12 70Q-12 117 21 209Q34 244 73 349Q117 367 141 388L140 388Z"  horiz-adv-x="222" vert-adv-y="1000"  />

      
      <glyph glyph-name="unied" unicode="&#xed;" d="M247 605L248 602L246 598Q241 582 174 523Q115 471 89 457L85 457Q81 459 79 463Q85 484 131 548Q138 557 158 607Q161 606 195 605Q213 604 243 607L247 605M140 388Q142 389 149 389Q153 389 153 383Q153 338 94 215Q35 92 35 44Q35 5 81 5Q131 5 228 73L228 60Q146-7 78-7Q40-7 14 13Q-12 33-12 70Q-12 117 21 209Q34 244 73 349Q117 367 141 388L140 388Z"  horiz-adv-x="222" vert-adv-y="1000"  />

      
      <glyph glyph-name="uniee" unicode="&#xee;" d="M184 605L191 552Q194 527 211 502Q223 484 229 471L229 467L224 462L220 462Q204 462 170 502Q139 538 131 559Q49 462 30 462Q27 462 27 468Q27 470 29 477Q79 527 118 604L184 604L184 605M140 389Q142 390 149 390Q153 390 153 384Q153 339 94 216Q35 93 35 45Q35 6 81 6Q131 6 228 74L228 61Q146-6 78-6Q40-6 14 14Q-12 34-12 71Q-12 118 21 210Q34 245 73 350Q117 368 141 389L140 389Z"  horiz-adv-x="222" vert-adv-y="1000"  />

      
      <glyph glyph-name="unief" unicode="&#xef;" d="M206 537Q218 537 227.50 524.50Q237 512 237 499Q237 486 228 474Q219 462 206 462L191 462Q179 462 170 474Q161 486 161 499Q161 511 170 524Q179 537 191 537L206 537M88 498Q88 461 49 461Q12 461 12 498Q12 537 49 537Q64 537 76 525Q88 513 88 498M140 388Q142 389 149 389Q153 389 153 383Q153 338 94 215Q35 92 35 44Q35 5 81 5Q131 5 228 73L228 60Q146-7 78-7Q40-7 14 13Q-12 33-12 70Q-12 117 21 209Q34 244 73 349Q117 367 141 388L140 388Z"  horiz-adv-x="222" vert-adv-y="1000"  />

      
      <glyph glyph-name="unif1" unicode="&#xf1;" d="M91 491Q97 521 129 550Q161 579 191 579Q209 579 254.50 554.50Q300 530 311 530Q339 530 354 551Q374 578 378 581L381 581L388 577L389 574Q377 542 349 515Q317 483 287 483Q266 483 218 509Q170 535 158 535Q139 535 98 485Q93 485 91 491M140 385L142 382Q136 363 63 189Q-1 37-1 21Q-1 17 3 17L8 19Q24 35 39 66Q45 80 64 117Q96 178 170 271Q258 382 301 382Q317 382 328.50 365Q340 348 340 331Q340 286 293.50 185Q247 84 247 39Q247 8 297 8Q336 8 374 26Q391 34 441 68L442 55Q369-5 294-5Q253-5 226 18.50Q199 42 199 83Q199 123 249 228Q299 333 299 367Q298 368 295 368Q281 368 233 323Q135 231 58 82Q51 67 29 22Q21 6 7 1Q-22 1-22 58Q-22 117 11 206Q30 258 65 352Q92 368 138 386L140 385Z"  horiz-adv-x="442" vert-adv-y="1000"  />

      
      <glyph glyph-name="unif2" unicode="&#xf2;" d="M197 607Q236 523 274 471L276 464L273 459L270 457L268 457Q253 457 180 522Q107 587 107 601Q108 603 112 606Q119 605 142 605Q151 605 169 606Q187 607 196 607L197 607M39 90Q39 8 92 8Q179 8 236 168Q180 248 180 327Q180 427 233 427Q271 427 290 384Q304 352 305 308Q306 246 270 159Q308 127 354 127Q388 127 422 145L421 132Q390 115 350 115Q306 115 264 143Q176-7 82-7Q32-7 4 21Q-24 49-24 99Q-24 168 15 239Q51 306 108 352Q150 386 168 386Q173 386 173 382Q173 379 158 363Q40 238 40 91L39 90M225 407L220 408Q197 402 197 344Q197 267 242 190Q253 243 253 303Q253 386 225 407Z"  horiz-adv-x="423" vert-adv-y="1000"  />

      
      <glyph glyph-name="unif3" unicode="&#xf3;" d="M338 605L339 603Q339 587 266 522Q193 457 176 457L171 462Q173 471 222 548Q227 555 251 607Q267 605 285 605Q309 605 333 607L338 605M38 90Q38 8 91 8Q178 8 235 168Q179 248 179 327Q179 427 232 427Q270 427 289 384Q303 352 304 308Q305 246 269 159Q307 127 353 127Q387 127 421 145L420 132Q389 115 349 115Q305 115 263 143Q175-7 81-7Q31-7 3 21Q-25 49-25 99Q-25 168 14 239Q50 306 107 352Q149 386 167 386Q172 386 172 382Q172 379 157 363Q39 238 39 91L38 90M224 407L219 408Q196 402 196 344Q196 267 241 190Q252 243 252 303Q252 386 224 407Z"  horiz-adv-x="423" vert-adv-y="1000"  />

      
      <glyph glyph-name="unif4" unicode="&#xf4;" d="M295 519L312 491Q317 483 320 471L320 467Q317 462 312 462Q293 462 261 501Q239 528 222 559Q141 462 122 462Q117 462 117 467Q117 471 122 477Q127 483 147 505Q188 550 203 589Q205 593 209 604L275 604Q275 552 295 519M38 90Q38 8 91 8Q178 8 235 168Q179 248 179 327Q179 427 232 427Q270 427 289 384Q303 352 304 308Q305 246 269 159Q307 127 353 127Q387 127 421 145L420 132Q389 115 349 115Q305 115 263 143Q175-7 81-7Q31-7 3 21Q-25 49-25 99Q-25 168 14 239Q50 306 107 352Q149 386 167 386Q172 386 172 382Q172 379 157 363Q39 238 39 91L38 90M224 407L219 408Q196 402 196 344Q196 267 241 190Q252 243 252 303Q252 386 224 407Z"  horiz-adv-x="423" vert-adv-y="1000"  />

      
      <glyph glyph-name="unif5" unicode="&#xf5;" d="M81 491Q104 533 121 550Q149 579 183 579Q200 579 245.50 554.50Q291 530 302 530Q325 530 340 547Q355 564 369 581L373 581L379 577L379 573Q379 549 341.50 516Q304 483 279 483Q259 483 210 509Q161 535 149 535Q133 535 111 510L89 485Q81 485 81 491M38 90Q38 8 91 8Q178 8 235 168Q179 248 179 327Q179 427 232 427Q270 427 289 384Q303 352 304 308Q305 246 269 159Q307 127 353 127Q387 127 421 145L420 132Q389 115 349 115Q305 115 263 143Q175-7 81-7Q31-7 3 21Q-25 49-25 99Q-25 168 14 239Q50 306 107 352Q149 386 167 386Q172 386 172 382Q172 379 157 363Q39 238 39 91L38 90M224 407L219 408Q196 402 196 344Q196 267 241 190Q252 243 252 303Q252 386 224 407Z"  horiz-adv-x="423" vert-adv-y="1000"  />

      
      <glyph glyph-name="unif6" unicode="&#xf6;" d="M38 90Q38 8 91 8Q178 8 235 168Q179 248 179 327Q179 427 232 427Q270 427 289 384Q303 352 304 308Q305 246 269 159Q307 127 353 127Q387 127 421 145L420 132Q389 115 349 115Q305 115 263 143Q175-7 81-7Q31-7 3 21Q-25 49-25 99Q-25 168 14 239Q50 306 107 352Q149 386 167 386Q172 386 172 382Q172 379 157 363Q39 238 39 91L38 90M224 407L219 408Q196 402 196 344Q196 267 241 190Q252 243 252 303Q252 386 224 407M298 537Q313 537 324.50 525.50Q336 514 336 499Q336 487 326.50 474Q317 461 305 461L290 461Q280 461 270 471.50Q260 482 260 492L260 506Q260 519 272.50 528Q285 537 298 537M187 498Q187 485 177 473Q167 461 155 461L141 461Q129 461 119.50 473.50Q110 486 110 498Q110 514 121 525.50Q132 537 148 537Q163 537 175 525Q187 513 187 498Z"  horiz-adv-x="423" vert-adv-y="1000"  />

      
      <glyph glyph-name="unif7" unicode="&#xf7;" d="M490 274L490 222L-5 222L-5 274L490 274M291 376Q291 354 275.50 338.50Q260 323 238 323Q216 323 200.50 338.50Q185 354 185 376Q185 398 200.50 413.50Q216 429 238 429Q260 429 275.50 413.50Q291 398 291 376M291 119Q291 97 275.50 82Q260 67 238 67Q216 67 200.50 82Q185 97 185 119Q185 141 200.50 156.50Q216 172 238 172Q260 172 275.50 156.50Q291 141 291 119Z"  horiz-adv-x="520" vert-adv-y="1000"  />

      
      <glyph glyph-name="unif8" unicode="&#xf8;" d="M43 96Q43 78 47 51L195 258Q182 309 182 331Q182 428 244 428Q267 428 293 396L318 430L322 432L326 432Q329 432 332 430L334 427L334 424Q334 423 333 421L333 419L302 375Q310 329 310 309Q310 236 280 156Q308 125 358 125Q384 125 400 135L402 131L402 128Q402 116 375 116Q313 116 273 142Q250 85 194 37Q134-15 77-15Q58-15 29-6Q7-39-1-39L-7-39Q-10-36-10-32Q-8-27 13 5Q-8 31-14 47Q-20 63-20 94Q-20 181 53 283Q85 327 164 384L167 384Q167 385 169 385Q174 385 174 381L173 378Q118 323 82 249Q43 169 43 97L43 96M260 348Q254 409 227 409Q200 409 200 353Q200 340 204.50 315.50Q209 291 209 278L260 348M263 319L215 253Q221 234 249 190Q260 251 263 319M107-1Q191-1 244 166Q213 201 201 233L54 27Q75-1 106-1L107-1Z"  horiz-adv-x="423" vert-adv-y="1000"  />

      
      <glyph glyph-name="unif9" unicode="&#xf9;" d="M292 471L294 464L291 459L288 457L285 457Q258 457 126 595L126 601Q126 605 129 606Q136 605 163 605Q168 605 214 607Q257 518 292 471M148 390L148 387Q148 381 69 181Q27 74 27 40Q27 19 54 8Q59 8 63 7L72 7Q100 7 138 30Q157 41 198 71Q211 139 242 221L298 367Q325 378 370 389L374 386L374 383Q351 334 305 207Q254 66 254 39Q254 5 304 5Q368 5 459 75L459 59Q371-7 303-7Q272-7 242 9Q208 27 202 55Q132-4 69-4Q33-4 7 15Q-22 36-22 70Q-22 109 18 218Q30 251 74 369Q123 388 144 392L148 390Z"  horiz-adv-x="463" vert-adv-y="1000"  />

      
      <glyph glyph-name="unifa" unicode="&#xfa;" d="M356 605L358 602Q355 585 282.50 520.50Q210 456 194 457Q189 460 189 462Q189 469 240 548Q250 563 267 607Q270 606 304 605Q322 604 352 607L356 605M148 390L148 387Q148 381 69 181Q27 74 27 40Q27 19 54 8Q59 8 63 7L72 7Q100 7 138 30Q157 41 198 71Q211 139 242 221L298 367Q325 378 370 389L374 386L374 383Q351 334 305 207Q254 66 254 39Q254 5 304 5Q368 5 459 75L459 59Q371-7 303-7Q272-7 242 9Q208 27 202 55Q132-4 69-4Q33-4 7 15Q-22 36-22 70Q-22 109 18 218Q30 251 74 369Q123 388 144 392L148 390Z"  horiz-adv-x="463" vert-adv-y="1000"  />

      
      <glyph glyph-name="unifb" unicode="&#xfb;" d="M320 502Q326 494 338 471L338 467L336 464L333 462L329 462Q312 462 279 502Q252 535 240 559Q159 462 140 462Q136 462 136 470Q136 473 166 505Q187 528 227 604L293 604L300 551Q307 523 320 502M148 390L148 387Q148 381 69 181Q27 74 27 40Q27 19 54 8Q59 8 63 7L72 7Q100 7 138 30Q157 41 198 71Q211 139 242 221L298 367Q325 378 370 389L374 386L374 383Q351 334 305 207Q254 66 254 39Q254 5 304 5Q368 5 459 75L459 59Q371-7 303-7Q272-7 242 9Q208 27 202 55Q132-4 69-4Q33-4 7 15Q-22 36-22 70Q-22 109 18 218Q30 251 74 369Q123 388 144 392L148 390Z"  horiz-adv-x="463" vert-adv-y="1000"  />

      
      <glyph glyph-name="unifc" unicode="&#xfc;" d="M148 390L148 387Q148 381 69 181Q27 74 27 40Q27 19 54 8Q59 8 63 7L72 7Q100 7 138 30Q157 41 198 71Q211 139 242 221L298 367Q325 378 370 389L374 386L374 383Q351 334 305 207Q254 66 254 39Q254 5 304 5Q368 5 459 75L459 59Q371-7 303-7Q272-7 242 9Q208 27 202 55Q132-4 69-4Q33-4 7 15Q-22 36-22 70Q-22 109 18 218Q30 251 74 369Q123 388 144 392L148 390M359 500Q359 487 349.50 474.50Q340 462 328 462L313 462Q300 462 291 474.50Q282 487 282 500Q282 514 294 526Q306 538 320 538Q336 538 347.50 527Q359 516 359 500M209 499Q209 485 197 473Q185 461 171 461Q157 461 145 473Q133 485 133 499Q133 537 178 537Q191 537 200 524.50Q209 512 209 499Z"  horiz-adv-x="463" vert-adv-y="1000"  />

      
      <glyph glyph-name="uniff" unicode="&#xff;" d="M307 537Q319 537 328.50 524.50Q338 512 338 499Q338 486 329 474Q320 462 307 462L293 462Q280 462 271 474Q262 486 262 499Q262 512 271.50 524.50Q281 537 293 537L307 537M189 506L189 492Q189 480 176.50 470.50Q164 461 151 461Q136 461 124 472Q112 483 112 498Q112 515 123 526Q134 537 151 537Q163 537 176 527.50Q189 518 189 506M145 384Q30 102 30 53Q30 8 70 8Q110 8 191 62L294 352Q302 356 366 392Q369 392 369 389Q369 378 297 187Q227 2 209-37Q261-23 333 8Q414 43 448 70L447 56Q342 1 205-49Q130-190 60-190Q46-190 35-179Q31-168 31-165Q31-103 145-61L182 41Q117-3 65-3Q-15-3-15 79Q-15 125 20 217Q33 250 74 356L143 389Q145 387 145 384M45-170L49-178Q56-182 61-182Q90-182 111-140Q125-113 139-74Q84-107 80-110Q44-137 44-163L44-167Q45-168 45-170Z"  horiz-adv-x="442" vert-adv-y="1000"  />

      
      </font>
</defs>
</svg>
